<svg width="18" height="11" viewBox="0 0 18 11" fill="none" xmlns="http://www.w3.org/2000/svg">
    <path d="M17.7636 1.92322L9.68323 10.2556C9.60819 10.3331 9.51907 10.3946 9.42098 10.4365C9.32288 10.4784 9.21773 10.5 9.11155 10.5C9.00536 10.5 8.90021 10.4784 8.80211 10.4365C8.70402 10.3946 8.6149 10.3331 8.53986 10.2556L0.459457 1.92322C0.307836 1.76687 0.222656 1.55482 0.222656 1.3337C0.222656 1.11259 0.307836 0.900535 0.459457 0.744186C0.611078 0.587836 0.816721 0.5 1.03115 0.5C1.24557 0.5 1.45121 0.587836 1.60283 0.744186L9.11155 8.48811L16.6203 0.744186C16.6953 0.666769 16.7845 0.605359 16.8825 0.563462C16.9806 0.521564 17.0858 0.5 17.1919 0.5C17.2981 0.5 17.4032 0.521564 17.5013 0.563462C17.5994 0.605359 17.6886 0.666769 17.7636 0.744186C17.8387 0.821602 17.8983 0.913509 17.9389 1.01466C17.9795 1.11581 18.0004 1.22422 18.0004 1.3337C18.0004 1.44319 17.9795 1.5516 17.9389 1.65275C17.8983 1.7539 17.8387 1.8458 17.7636 1.92322Z" fill="#101010"/>
</svg>
