<svg width="22" height="22" viewBox="0 0 22 22" fill="none" xmlns="http://www.w3.org/2000/svg">
<rect width="22" height="22" rx="5" fill="#DE9D62"/>
<path d="M15.8837 9.2139L10.301 14.7962C10.2364 14.8608 10.1597 14.9121 10.0753 14.947C9.99086 14.982 9.90039 15 9.80903 15C9.71767 15 9.6272 14.982 9.54279 14.947C9.45839 14.9121 9.3817 14.8608 9.3171 14.7962L6.20336 11.6659C6.07314 11.5355 6 11.3588 6 11.1744C6 10.9901 6.07314 10.8134 6.20336 10.683L7.24678 9.63953C7.37679 9.50949 7.55299 9.43622 7.73687 9.43573C7.92075 9.43524 8.09734 9.50758 8.22803 9.63692L9.82099 11.1703L9.82577 11.1751L13.8573 7.20271C13.9877 7.07289 14.1641 7 14.3481 7C14.5321 7 14.7086 7.07289 14.839 7.20271L15.8824 8.227C15.9475 8.29157 15.9993 8.36838 16.0346 8.45302C16.07 8.53766 16.0882 8.62846 16.0884 8.72018C16.0885 8.81191 16.0705 8.90275 16.0353 8.98748C16.0002 9.07222 15.9487 9.14917 15.8837 9.2139Z" fill="white"/>
</svg>
