<svg width="18" height="18" viewBox="0 0 18 18" fill="none" xmlns="http://www.w3.org/2000/svg">
<path d="M17.6094 8.66677L9.33344 0.390844C9.21008 0.266493 9.06323 0.167903 8.90142 0.100807C8.73962 0.0337111 8.56609 -0.000552872 8.39093 6.74586e-06H0.666681C0.489868 6.74586e-06 0.320297 0.0702455 0.195271 0.195271C0.0702455 0.320297 6.74586e-06 0.489868 6.74586e-06 0.666681V8.39093C-0.000552872 8.56609 0.0337111 8.73962 0.100807 8.90142C0.167903 9.06323 0.266493 9.21008 0.390844 9.33344L8.66677 17.6094C8.79058 17.7332 8.93758 17.8315 9.09937 17.8985C9.26116 17.9655 9.43457 18 9.60969 18C9.78482 18 9.95823 17.9655 10.12 17.8985C10.2818 17.8315 10.4288 17.7332 10.5526 17.6094L17.6094 10.5526C17.7332 10.4288 17.8315 10.2818 17.8985 10.12C17.9655 9.95823 18 9.78482 18 9.60969C18 9.43457 17.9655 9.26116 17.8985 9.09937C17.8315 8.93758 17.7332 8.79058 17.6094 8.66677ZM4.33339 5.3334C4.1356 5.3334 3.94226 5.27475 3.77781 5.16487C3.61336 5.05498 3.48519 4.8988 3.4095 4.71607C3.33381 4.53335 3.31401 4.33228 3.35259 4.13829C3.39118 3.94431 3.48642 3.76613 3.62627 3.62627C3.76613 3.48642 3.94431 3.39118 4.13829 3.35259C4.33228 3.31401 4.53335 3.33381 4.71607 3.4095C4.8988 3.48519 5.05498 3.61336 5.16487 3.77781C5.27475 3.94226 5.3334 4.1356 5.3334 4.33339C5.3334 4.59861 5.22804 4.85296 5.0405 5.0405C4.85296 5.22804 4.59861 5.3334 4.33339 5.3334Z" fill="#B5B5B5"/>
</svg>
