<svg width="19" height="21" viewBox="0 0 19 21" fill="none" xmlns="http://www.w3.org/2000/svg">
<path d="M16.9231 2.03846H14.6154V1.26923C14.6154 1.06522 14.5343 0.869561 14.3901 0.725302C14.2458 0.581044 14.0502 0.5 13.8462 0.5C13.6421 0.5 13.4465 0.581044 13.3022 0.725302C13.158 0.869561 13.0769 1.06522 13.0769 1.26923V2.03846H5.38462V1.26923C5.38462 1.06522 5.30357 0.869561 5.15931 0.725302C5.01505 0.581044 4.8194 0.5 4.61538 0.5C4.41137 0.5 4.21572 0.581044 4.07146 0.725302C3.9272 0.869561 3.84615 1.06522 3.84615 1.26923V2.03846H1.53846C1.13044 2.03846 0.739122 2.20055 0.450605 2.48907C0.162087 2.77758 0 3.1689 0 3.57692V18.9615C0 19.3696 0.162087 19.7609 0.450605 20.0494C0.739122 20.3379 1.13044 20.5 1.53846 20.5H16.9231C17.3311 20.5 17.7224 20.3379 18.0109 20.0494C18.2995 19.7609 18.4615 19.3696 18.4615 18.9615V3.57692C18.4615 3.1689 18.2995 2.77758 18.0109 2.48907C17.7224 2.20055 17.3311 2.03846 16.9231 2.03846ZM11.5385 14.3462H10V15.8846C10 16.0886 9.91896 16.2843 9.7747 16.4285C9.63044 16.5728 9.43478 16.6538 9.23077 16.6538C9.02676 16.6538 8.8311 16.5728 8.68684 16.4285C8.54258 16.2843 8.46154 16.0886 8.46154 15.8846V14.3462H6.92308C6.71906 14.3462 6.52341 14.2651 6.37915 14.1209C6.23489 13.9766 6.15385 13.7809 6.15385 13.5769C6.15385 13.3729 6.23489 13.1773 6.37915 13.033C6.52341 12.8887 6.71906 12.8077 6.92308 12.8077H8.46154V11.2692C8.46154 11.0652 8.54258 10.8696 8.68684 10.7253C8.8311 10.581 9.02676 10.5 9.23077 10.5C9.43478 10.5 9.63044 10.581 9.7747 10.7253C9.91896 10.8696 10 11.0652 10 11.2692V12.8077H11.5385C11.7425 12.8077 11.9381 12.8887 12.0824 13.033C12.2266 13.1773 12.3077 13.3729 12.3077 13.5769C12.3077 13.7809 12.2266 13.9766 12.0824 14.1209C11.9381 14.2651 11.7425 14.3462 11.5385 14.3462ZM1.53846 6.65385V3.57692H3.84615V4.34615C3.84615 4.55017 3.9272 4.74582 4.07146 4.89008C4.21572 5.03434 4.41137 5.11538 4.61538 5.11538C4.8194 5.11538 5.01505 5.03434 5.15931 4.89008C5.30357 4.74582 5.38462 4.55017 5.38462 4.34615V3.57692H13.0769V4.34615C13.0769 4.55017 13.158 4.74582 13.3022 4.89008C13.4465 5.03434 13.6421 5.11538 13.8462 5.11538C14.0502 5.11538 14.2458 5.03434 14.3901 4.89008C14.5343 4.74582 14.6154 4.55017 14.6154 4.34615V3.57692H16.9231V6.65385H1.53846Z" fill="#B5B5B5"/>
</svg>
