<svg width="22" height="21" viewBox="0 0 22 21" fill="none" xmlns="http://www.w3.org/2000/svg">
<path d="M21.2953 7.30661L11.2955 0.640121C11.1586 0.548758 10.9977 0.5 10.833 0.5C10.6684 0.5 10.5075 0.548758 10.3706 0.640121L0.370823 7.30661C0.256671 7.38277 0.163094 7.48594 0.0984034 7.60696C0.0337128 7.72799 -8.89548e-05 7.86311 1.75812e-07 8.00034V18.8334C1.75812e-07 19.2754 0.17559 19.6993 0.488142 20.0119C0.800694 20.3244 1.22461 20.5 1.66662 20.5H19.9995C20.4415 20.5 20.8654 20.3244 21.1779 20.0119C21.4905 19.6993 21.6661 19.2754 21.6661 18.8334V8.00034C21.6662 7.86311 21.6324 7.72799 21.5677 7.60696C21.503 7.48594 21.4094 7.38277 21.2953 7.30661ZM1.66662 18.8334V9.618L8.53102 14.5137C8.67235 14.6147 8.8417 14.6689 9.01538 14.6689H12.6507C12.8244 14.6689 12.9937 14.6147 13.1351 14.5137L19.9995 9.618V18.8334H1.66662Z" fill="#B5B5B5"/>
</svg>
