<svg width="19" height="16" viewBox="0 0 19 16" fill="none" xmlns="http://www.w3.org/2000/svg">
<path d="M16.7273 2.90909H2.18182C1.98893 2.90909 1.80395 2.83247 1.66756 2.69608C1.53117 2.55969 1.45455 2.3747 1.45455 2.18182C1.45455 1.98893 1.53117 1.80395 1.66756 1.66756C1.80395 1.53117 1.98893 1.45455 2.18182 1.45455H14.5455C14.7383 1.45455 14.9233 1.37792 15.0597 1.24153C15.1961 1.10514 15.2727 0.920157 15.2727 0.727273C15.2727 0.534388 15.1961 0.349404 15.0597 0.213013C14.9233 0.0766233 14.7383 0 14.5455 0H2.18182C1.60316 0 1.04821 0.22987 0.63904 0.63904C0.22987 1.04821 0 1.60316 0 2.18182V13.8182C0 14.3968 0.22987 14.9518 0.63904 15.361C1.04821 15.7701 1.60316 16 2.18182 16H16.7273C17.113 16 17.483 15.8468 17.7558 15.574C18.0286 15.3012 18.1818 14.9312 18.1818 14.5455V4.36364C18.1818 3.97787 18.0286 3.6079 17.7558 3.33512C17.483 3.06234 17.113 2.90909 16.7273 2.90909ZM13.4545 10.1818C13.2388 10.1818 13.0279 10.1178 12.8485 9.99797C12.6691 9.8781 12.5292 9.70772 12.4467 9.50838C12.3641 9.30904 12.3425 9.0897 12.3846 8.87808C12.4267 8.66647 12.5306 8.47209 12.6832 8.31952C12.8357 8.16695 13.0301 8.06306 13.2417 8.02096C13.4533 7.97887 13.6727 8.00047 13.872 8.08304C14.0714 8.16561 14.2417 8.30543 14.3616 8.48483C14.4815 8.66423 14.5455 8.87515 14.5455 9.09091C14.5455 9.38024 14.4305 9.65771 14.2259 9.8623C14.0213 10.0669 13.7439 10.1818 13.4545 10.1818Z" fill="#B5B5B5"/>
</svg>
