<svg width="21" height="21" viewBox="0 0 21 21" fill="none" xmlns="http://www.w3.org/2000/svg">
<path d="M20.6894 20.1001C20.6191 20.2217 20.5181 20.3227 20.3965 20.3929C20.2749 20.4631 20.1369 20.5 19.9965 20.5H0.799071C0.658731 20.4999 0.520898 20.4628 0.399413 20.3925C0.277928 20.3223 0.177068 20.2213 0.10696 20.0997C0.036852 19.9781 -3.60033e-05 19.8402 2.63682e-08 19.6999C3.60561e-05 19.5596 0.0369948 19.4217 0.107165 19.3002C1.62996 16.6675 3.97664 14.7798 6.71527 13.8849C5.36062 13.0785 4.30814 11.8497 3.71946 10.3872C3.13078 8.92469 3.03845 7.3094 3.45665 5.78936C3.87485 4.26932 4.78045 2.92858 6.03438 1.97304C7.28832 1.01751 8.82125 0.5 10.3978 0.5C11.9743 0.5 13.5072 1.01751 14.7611 1.97304C16.0151 2.92858 16.9207 4.26932 17.3389 5.78936C17.7571 7.3094 17.6648 8.92469 17.0761 10.3872C16.4874 11.8497 15.4349 13.0785 14.0803 13.8849C16.8189 14.7798 19.1656 16.6675 20.6884 19.3002C20.7587 19.4217 20.7959 19.5596 20.796 19.7C20.7962 19.8404 20.7594 19.9784 20.6894 20.1001Z" fill="#B5B5B5"/>
</svg>
