<svg width="24" height="24" viewBox="0 0 24 24" fill="none" xmlns="http://www.w3.org/2000/svg">
    <path d="M22 0H2C1.46957 0 0.960859 0.210714 0.585786 0.585786C0.210714 0.960859 0 1.46957 0 2V22C0 22.5304 0.210714 23.0391 0.585786 23.4142C0.960859 23.7893 1.46957 24 2 24H22C22.5304 24 23.0391 23.7893 23.4142 23.4142C23.7893 23.0391 24 22.5304 24 22V2C24 1.46957 23.7893 0.960859 23.4142 0.585786C23.0391 0.210714 22.5304 0 22 0ZM2 2H22V11.6725L18.9137 8.585C18.5387 8.21021 18.0302 7.99968 17.5 7.99968C16.9698 7.99968 16.4613 8.21021 16.0863 8.585L2.67125 22H2V2ZM22 22H5.5L17.5 10L22 14.5V22ZM8 11C8.59334 11 9.17336 10.8241 9.66671 10.4944C10.1601 10.1648 10.5446 9.69623 10.7716 9.14805C10.9987 8.59987 11.0581 7.99667 10.9424 7.41473C10.8266 6.83279 10.5409 6.29824 10.1213 5.87868C9.70176 5.45912 9.16721 5.1734 8.58527 5.05764C8.00333 4.94189 7.40013 5.0013 6.85195 5.22836C6.30377 5.45542 5.83524 5.83994 5.50559 6.33329C5.17595 6.82664 5 7.40666 5 8C5 8.79565 5.31607 9.55871 5.87868 10.1213C6.44129 10.6839 7.20435 11 8 11ZM8 7C8.19778 7 8.39112 7.05865 8.55557 7.16853C8.72002 7.27841 8.84819 7.43459 8.92388 7.61732C8.99957 7.80004 9.01937 8.00111 8.98079 8.19509C8.9422 8.38907 8.84696 8.56725 8.70711 8.70711C8.56725 8.84696 8.38907 8.9422 8.19509 8.98079C8.00111 9.01937 7.80004 8.99957 7.61732 8.92388C7.43459 8.84819 7.27841 8.72002 7.16853 8.55557C7.05865 8.39112 7 8.19778 7 8C7 7.73478 7.10536 7.48043 7.29289 7.29289C7.48043 7.10536 7.73478 7 8 7Z" fill="white"/>
</svg>
