<svg width="10" height="10" viewBox="0 0 10 10" fill="none" xmlns="http://www.w3.org/2000/svg">
<path d="M9.78931 8.77908C9.92345 8.91322 9.99881 9.09515 9.99881 9.28484C9.99881 9.47454 9.92345 9.65647 9.78931 9.79061C9.65518 9.92475 9.47325 10.0001 9.28355 10.0001C9.09385 10.0001 8.91192 9.92475 8.77778 9.79061L5 6.01164L1.22103 9.78942C1.08689 9.92356 0.904962 9.99892 0.715262 9.99892C0.525563 9.99892 0.343633 9.92356 0.209496 9.78942C0.0753579 9.65528 2.82674e-09 9.47335 0 9.28366C-2.82674e-09 9.09396 0.0753579 8.91203 0.209496 8.77789L3.98847 5.00011L0.210685 1.22114C0.0765477 1.087 0.00119006 0.905068 0.00119007 0.715369C0.00119007 0.52567 0.0765477 0.34374 0.210685 0.209602C0.344823 0.0754645 0.526753 0.000106641 0.716452 0.000106639C0.906152 0.000106637 1.08808 0.0754645 1.22222 0.209602L5 3.98857L8.77897 0.209007C8.91311 0.0748694 9.09504 -0.000488284 9.28474 -0.000488281C9.47444 -0.000488278 9.65637 0.0748694 9.7905 0.209007C9.92464 0.343145 10 0.525075 10 0.714774C10 0.904473 9.92464 1.0864 9.7905 1.22054L6.01153 5.00011L9.78931 8.77908Z" fill="#FF1616"/>
</svg>
