<?xml version="1.0" standalone="no"?>
<!DOCTYPE svg PUBLIC "-//W3C//DTD SVG 20010904//EN"
 "http://www.w3.org/TR/2001/REC-SVG-20010904/DTD/svg10.dtd">
<svg version="1.0" xmlns="http://www.w3.org/2000/svg"
 width="107.000000pt" height="107.000000pt" viewBox="0 0 107.000000 107.000000"
 preserveAspectRatio="xMidYMid meet">
<metadata>
Created by potrace 1.14, written by Peter Selinger 2001-2017
</metadata>
<g transform="translate(0.000000,107.000000) scale(0.100000,-0.100000)"
fill="#000000" stroke="none">
<path d="M603 849 c-6 -6 -9 -19 -6 -28 4 -9 2 -13 -2 -8 -8 7 -65 -39 -65
-52 0 -9 46 -61 54 -61 4 0 4 4 1 10 -3 5 2 38 11 72 l18 62 12 -29 c7 -17 13
-24 14 -16 0 10 7 8 24 -8 21 -20 23 -27 14 -47 -8 -18 -14 -21 -19 -12 -4 7
-4 15 0 18 5 3 3 11 -5 18 -8 7 -14 8 -14 2 0 -5 -10 -10 -22 -11 -22 -1 -22
-1 2 -8 18 -5 26 -15 28 -34 2 -15 0 -27 -5 -26 -22 4 -34 -3 -47 -28 l-15
-28 -1 28 c0 15 -4 28 -10 28 -44 6 -45 4 -50 -48 -10 -100 19 -143 98 -143
55 0 91 33 93 85 3 103 1 116 -18 114 -33 -3 -34 1 -13 31 21 29 21 30 3 55
-10 13 -26 27 -36 30 -9 4 -15 10 -12 15 9 14 -20 31 -32 19z m-18 -68 c-4
-13 -15 -21 -27 -21 -21 0 -21 0 2 25 26 28 35 27 25 -4z m-5 -35 c0 -11 -19
-15 -25 -6 -3 5 1 10 9 10 9 0 16 -2 16 -4z m70 -123 c-1 -46 -1 -47 -14 -24
-10 19 -11 31 -3 48 5 13 12 23 14 23 1 0 3 -21 3 -47z m-45 -71 c-8 -9 -25
20 -18 31 3 5 10 2 15 -7 6 -10 7 -20 3 -24z"/>
<path d="M596 726 c9 -24 32 -26 37 -5 4 17 3 18 -9 8 -10 -8 -14 -8 -14 0 0
6 -4 11 -10 11 -5 0 -7 -6 -4 -14z"/>
<path d="M104 399 c-4 -7 -7 -41 -6 -77 1 -77 18 -102 69 -102 55 0 73 27 72
110 -1 53 -4 70 -15 70 -8 0 -17 0 -21 0 -5 0 -8 -26 -9 -58 -1 -79 -8 -96
-33 -82 -16 8 -21 23 -23 77 -3 64 -17 89 -34 62z"/>
<path d="M259 400 c-4 -18 -5 -157 -1 -167 2 -7 13 -13 23 -13 14 0 19 7 19
28 0 43 11 45 37 7 14 -20 32 -35 43 -35 25 0 25 1 -7 58 l-27 48 28 37 c16
20 26 38 22 38 -3 1 -12 2 -18 4 -7 1 -28 -14 -45 -34 l-33 -36 0 35 c0 29 -4
36 -20 36 -11 0 -20 -3 -21 -6z"/>
<path d="M481 394 c-21 -15 -27 -49 -13 -71 4 -7 24 -19 45 -28 43 -18 49 -35
12 -35 -14 0 -25 4 -25 9 0 5 -9 11 -20 14 -25 6 -28 -24 -4 -47 35 -36 136
-2 120 41 -3 8 -6 18 -6 23 0 5 -20 16 -45 26 -47 18 -56 30 -29 41 10 4 22
-1 29 -10 17 -23 45 -22 45 2 0 39 -70 62 -109 35z"/>
<path d="M614 401 c-2 -2 -4 -44 -4 -93 l0 -88 64 0 c46 0 65 4 69 14 8 21 -2
26 -51 26 -36 0 -43 3 -38 16 3 9 6 17 6 19 0 2 11 2 25 -1 20 -3 25 0 25 16
0 15 -7 20 -24 20 -14 0 -28 5 -32 11 -8 14 14 30 41 28 38 -2 46 1 43 18 -3
14 -14 18 -61 18 -32 0 -60 -1 -63 -4z"/>
<path d="M764 402 c-6 -4 -9 -41 -8 -82 2 -103 2 -100 24 -100 19 0 20 7 20
89 0 65 -4 90 -13 94 -8 3 -18 2 -23 -1z"/>
<path d="M820 313 c0 -85 2 -93 19 -93 17 0 20 8 23 52 l3 52 28 -53 c23 -41
33 -51 50 -49 20 3 21 9 22 86 1 90 -1 96 -27 98 -15 2 -18 -7 -18 -50 l0 -51
-29 49 c-19 32 -37 50 -50 51 -20 2 -21 -3 -21 -92z"/>
</g>
</svg>
