<svg width="22" height="20" viewBox="0 0 22 20" fill="none" xmlns="http://www.w3.org/2000/svg">
    <path d="M20.9957 9.11016L16.8193 12.755L18.0703 18.1816C18.1365 18.4653 18.1177 18.7622 18.016 19.0352C17.9144 19.3082 17.7346 19.5452 17.499 19.7166C17.2634 19.8879 16.9825 19.986 16.6915 19.9986C16.4005 20.0112 16.1122 19.9377 15.8627 19.7874L11.1297 16.9166L6.40691 19.7874C6.15741 19.9377 5.86912 20.0112 5.57808 19.9986C5.28705 19.986 5.00618 19.8879 4.7706 19.7166C4.53502 19.5452 4.35517 19.3082 4.25355 19.0352C4.15193 18.7622 4.13304 18.4653 4.19924 18.1816L5.44846 12.7606L1.27111 9.11016C1.05017 8.91961 0.890402 8.66806 0.81185 8.38706C0.733297 8.10607 0.739456 7.80814 0.829552 7.53063C0.919648 7.25312 1.08967 7.00839 1.3183 6.82713C1.54693 6.64586 1.82399 6.53614 2.11473 6.5117L7.62094 6.03479L9.77028 0.908257C9.88252 0.639258 10.0718 0.409482 10.3144 0.247861C10.557 0.08624 10.8419 0 11.1334 0C11.4249 0 11.7098 0.08624 11.9524 0.247861C12.195 0.409482 12.3843 0.639258 12.4965 0.908257L14.6523 6.03479L20.1567 6.5117C20.4474 6.53614 20.7245 6.64586 20.9531 6.82713C21.1818 7.00839 21.3518 7.25312 21.4419 7.53063C21.532 7.80814 21.5381 8.10607 21.4596 8.38706C21.381 8.66806 21.2213 8.91961 21.0003 9.11016H20.9957Z" fill="#FFC401"/>
</svg>
