<svg width="24" height="20" viewBox="0 0 24 20" fill="none" xmlns="http://www.w3.org/2000/svg">
<path d="M17.1334 0C14.9818 0 13.098 0.925218 11.9238 2.48913C10.7496 0.925218 8.8658 0 6.71425 0C5.00158 0.00193039 3.35961 0.683141 2.14857 1.89418C0.937535 3.10522 0.256325 4.74719 0.254395 6.45986C0.254395 13.7532 11.0684 19.6567 11.5289 19.9005C11.6503 19.9658 11.786 20 11.9238 20C12.0616 20 12.1973 19.9658 12.3187 19.9005C12.7792 19.6567 23.5932 13.7532 23.5932 6.45986C23.5913 4.74719 22.9101 3.10522 21.6991 1.89418C20.488 0.683141 18.846 0.00193039 17.1334 0ZM11.9238 18.2126C10.0213 17.104 1.92145 12.0539 1.92145 6.45986C1.92311 5.18924 2.42859 3.97113 3.32706 3.07266C4.22552 2.1742 5.44363 1.66871 6.71425 1.66706C8.74077 1.66706 10.4422 2.74648 11.1528 4.48022C11.2156 4.6331 11.3224 4.76386 11.4597 4.85588C11.597 4.94791 11.7585 4.99704 11.9238 4.99704C12.0891 4.99704 12.2506 4.94791 12.3879 4.85588C12.5252 4.76386 12.632 4.6331 12.6948 4.48022C13.4054 2.74336 15.1069 1.66706 17.1334 1.66706C18.404 1.66871 19.6221 2.1742 20.5206 3.07266C21.419 3.97113 21.9245 5.18924 21.9262 6.45986C21.9262 12.0455 13.8243 17.103 11.9238 18.2126Z" fill="#FF1616"/>
</svg>
