<svg width="22" height="23" viewBox="0 0 22 23" fill="none" xmlns="http://www.w3.org/2000/svg">
    <path d="M2.52084 3.47919L4.4275 3.80919L5.31025 14.3261C5.34416 14.74 5.53286 15.1258 5.8387 15.4067C6.14453 15.6875 6.54502 15.8427 6.96025 15.8414H16.9611C17.3587 15.8418 17.743 15.6987 18.0435 15.4383C18.344 15.1779 18.5403 14.8178 18.5964 14.4242L19.4673 8.41269C19.4905 8.25281 19.4819 8.08993 19.4422 7.93335C19.4024 7.77677 19.3321 7.62957 19.2354 7.50017C19.1387 7.37076 19.0174 7.26169 18.8785 7.17919C18.7396 7.09669 18.5858 7.04237 18.4259 7.01935C18.3673 7.01294 4.73367 7.00835 4.73367 7.00835" stroke="white" stroke-width="1.5" stroke-linecap="round" stroke-linejoin="round"/>
    <path d="M12.9479 10.3954H15.4898" stroke="white" stroke-width="1.5" stroke-linecap="round" stroke-linejoin="round"/>
    <path fill-rule="evenodd" clip-rule="evenodd" d="M6.55784 19.0194C6.62507 19.0166 6.69218 19.0273 6.75514 19.051C6.8181 19.0748 6.8756 19.111 6.92419 19.1576C6.97277 19.2041 7.01144 19.26 7.03785 19.3219C7.06427 19.3838 7.07788 19.4504 7.07788 19.5177C7.07788 19.5849 7.06427 19.6515 7.03785 19.7134C7.01144 19.7753 6.97277 19.8312 6.92419 19.8777C6.8756 19.9243 6.8181 19.9605 6.75514 19.9843C6.69218 20.008 6.62507 20.0187 6.55784 20.0159C6.42941 20.0104 6.30806 19.9555 6.21913 19.8626C6.1302 19.7698 6.08055 19.6462 6.08055 19.5177C6.08055 19.3891 6.1302 19.2655 6.21913 19.1727C6.30806 19.0799 6.42941 19.025 6.55784 19.0194Z" fill="white" stroke="white" stroke-width="1.5" stroke-linecap="round" stroke-linejoin="round"/>
    <path fill-rule="evenodd" clip-rule="evenodd" d="M16.8988 19.0194C17.0312 19.0194 17.1583 19.072 17.252 19.1657C17.3457 19.2594 17.3983 19.3865 17.3983 19.519C17.3983 19.6515 17.3457 19.7786 17.252 19.8723C17.1583 19.9659 17.0312 20.0186 16.8988 20.0186C16.7663 20.0186 16.6392 19.9659 16.5455 19.8723C16.4518 19.7786 16.3992 19.6515 16.3992 19.519C16.3992 19.3865 16.4518 19.2594 16.5455 19.1657C16.6392 19.072 16.7663 19.0194 16.8988 19.0194Z" fill="white" stroke="white" stroke-width="1.5" stroke-linecap="round" stroke-linejoin="round"/>
</svg>
