<svg width="20" height="21" viewBox="0 0 20 21" fill="none" xmlns="http://www.w3.org/2000/svg">
    <path d="M8.33333 19.6667C8.33333 19.8877 8.24554 20.0996 8.08926 20.2559C7.93297 20.4122 7.72101 20.5 7.5 20.5H1.66667C1.22464 20.5 0.800716 20.3244 0.488155 20.0118C0.175595 19.6993 0 19.2754 0 18.8333V2.16667C0 1.72464 0.175595 1.30072 0.488155 0.988155C0.800716 0.675595 1.22464 0.5 1.66667 0.5H7.5C7.72101 0.5 7.93297 0.587798 8.08926 0.744078C8.24554 0.900358 8.33333 1.11232 8.33333 1.33333C8.33333 1.55435 8.24554 1.76631 8.08926 1.92259C7.93297 2.07887 7.72101 2.16667 7.5 2.16667H1.66667V18.8333H7.5C7.72101 18.8333 7.93297 18.9211 8.08926 19.0774C8.24554 19.2337 8.33333 19.4457 8.33333 19.6667ZM19.7563 9.91042L15.5896 5.74375C15.473 5.62707 15.3245 5.5476 15.1628 5.51539C15.001 5.48318 14.8334 5.49969 14.681 5.56281C14.5287 5.62594 14.3985 5.73285 14.3069 5.87002C14.2153 6.00718 14.1665 6.16842 14.1667 6.33333V9.66667H7.5C7.27899 9.66667 7.06702 9.75446 6.91074 9.91074C6.75446 10.067 6.66667 10.279 6.66667 10.5C6.66667 10.721 6.75446 10.933 6.91074 11.0893C7.06702 11.2455 7.27899 11.3333 7.5 11.3333H14.1667V14.6667C14.1665 14.8316 14.2153 14.9928 14.3069 15.13C14.3985 15.2671 14.5287 15.3741 14.681 15.4372C14.8334 15.5003 15.001 15.5168 15.1628 15.4846C15.3245 15.4524 15.473 15.3729 15.5896 15.2563L19.7563 11.0896C19.8337 11.0122 19.8952 10.9203 19.9371 10.8191C19.9791 10.718 20.0007 10.6095 20.0007 10.5C20.0007 10.3905 19.9791 10.282 19.9371 10.1809C19.8952 10.0797 19.8337 9.98781 19.7563 9.91042Z" fill="#D6001C"/>
</svg>
