<svg width="20" height="15" viewBox="0 0 20 15" fill="none" xmlns="http://www.w3.org/2000/svg">
<path d="M0.117676 1.32353C0.117676 1.10512 0.20444 0.895648 0.358882 0.741206C0.513324 0.586765 0.722792 0.5 0.941205 0.5H19.0589C19.2773 0.5 19.4867 0.586765 19.6412 0.741206C19.7956 0.895648 19.8824 1.10512 19.8824 1.32353C19.8824 1.54194 19.7956 1.75141 19.6412 1.90585C19.4867 2.06029 19.2773 2.14706 19.0589 2.14706H0.941205C0.722792 2.14706 0.513324 2.06029 0.358882 1.90585C0.20444 1.75141 0.117676 1.54194 0.117676 1.32353ZM0.941205 6.26471H14.1177C14.3361 6.26471 14.5456 6.17794 14.7 6.0235C14.8544 5.86906 14.9412 5.65959 14.9412 5.44118C14.9412 5.22276 14.8544 5.0133 14.7 4.85885C14.5456 4.70441 14.3361 4.61765 14.1177 4.61765H0.941205C0.722792 4.61765 0.513324 4.70441 0.358882 4.85885C0.20444 5.0133 0.117676 5.22276 0.117676 5.44118C0.117676 5.65959 0.20444 5.86906 0.358882 6.0235C0.513324 6.17794 0.722792 6.26471 0.941205 6.26471ZM19.0589 8.73529H0.941205C0.722792 8.73529 0.513324 8.82206 0.358882 8.9765C0.20444 9.13094 0.117676 9.34041 0.117676 9.55882C0.117676 9.77724 0.20444 9.98671 0.358882 10.1411C0.513324 10.2956 0.722792 10.3824 0.941205 10.3824H19.0589C19.2773 10.3824 19.4867 10.2956 19.6412 10.1411C19.7956 9.98671 19.8824 9.77724 19.8824 9.55882C19.8824 9.34041 19.7956 9.13094 19.6412 8.9765C19.4867 8.82206 19.2773 8.73529 19.0589 8.73529ZM14.1177 12.8529H0.941205C0.722792 12.8529 0.513324 12.9397 0.358882 13.0941C0.20444 13.2486 0.117676 13.4581 0.117676 13.6765C0.117676 13.8949 0.20444 14.1044 0.358882 14.2588C0.513324 14.4132 0.722792 14.5 0.941205 14.5H14.1177C14.3361 14.5 14.5456 14.4132 14.7 14.2588C14.8544 14.1044 14.9412 13.8949 14.9412 13.6765C14.9412 13.4581 14.8544 13.2486 14.7 13.0941C14.5456 12.9397 14.3361 12.8529 14.1177 12.8529Z" fill="#101010"/>
</svg>
