<svg width="20" height="21" viewBox="0 0 20 21" fill="none" xmlns="http://www.w3.org/2000/svg">
    <path d="M19.8257 4.46903C19.7562 4.38583 19.6692 4.31891 19.571 4.273C19.4728 4.22709 19.3657 4.2033 19.2573 4.20332H4.32177L3.86904 1.71654C3.80703 1.37522 3.6272 1.06649 3.36089 0.84417C3.09458 0.621852 2.75869 0.50005 2.41179 0.5H0.740664C0.544227 0.5 0.355837 0.578034 0.216935 0.716935C0.0780339 0.855837 0 1.04423 0 1.24066C0 1.4371 0.0780339 1.62549 0.216935 1.76439C0.355837 1.90329 0.544227 1.98133 0.740664 1.98133H2.40716L4.77358 14.9698C4.84328 15.355 5.01352 15.7149 5.26704 16.0132C4.91712 16.34 4.66456 16.7574 4.53736 17.219C4.41016 17.6806 4.41329 18.1684 4.54641 18.6284C4.67952 19.0883 4.93742 19.5024 5.29151 19.8247C5.6456 20.147 6.08203 20.365 6.55243 20.4544C7.02282 20.5438 7.50879 20.5012 7.95644 20.3313C8.40409 20.1614 8.79594 19.8708 9.08854 19.4918C9.38113 19.1128 9.56304 18.6601 9.61408 18.184C9.66513 17.708 9.58332 17.227 9.37773 16.7946H13.5828C13.4171 17.1415 13.3314 17.5212 13.3319 17.9056C13.3319 18.4183 13.484 18.9195 13.7688 19.3458C14.0537 19.7721 14.4585 20.1044 14.9322 20.3006C15.4059 20.4968 15.9271 20.5481 16.43 20.4481C16.9329 20.3481 17.3948 20.1012 17.7573 19.7386C18.1199 19.3761 18.3668 18.9142 18.4668 18.4113C18.5668 17.9085 18.5155 17.3872 18.3193 16.9136C18.1231 16.4399 17.7908 16.035 17.3645 15.7502C16.9382 15.4653 16.437 15.3133 15.9243 15.3133H6.95946C6.78601 15.3132 6.61806 15.2523 6.48491 15.1412C6.35176 15.03 6.26184 14.8757 6.23083 14.705L5.93734 13.0913H16.677C17.1973 13.0912 17.7012 12.9085 18.1006 12.575C18.5001 12.2415 18.7698 11.7785 18.8629 11.2665L19.9887 5.07638C20.0077 4.96939 20.003 4.85951 19.9748 4.75455C19.9467 4.64959 19.8958 4.55211 19.8257 4.46903ZM15.9243 16.7946C16.144 16.7946 16.3588 16.8598 16.5415 16.9818C16.7242 17.1039 16.8666 17.2774 16.9507 17.4804C17.0348 17.6834 17.0568 17.9068 17.0139 18.1223C16.971 18.3379 16.8652 18.5358 16.7099 18.6912C16.5545 18.8466 16.3565 18.9524 16.141 18.9952C15.9255 19.0381 15.7021 19.0161 15.4991 18.932C15.2961 18.8479 15.1226 18.7055 15.0005 18.5228C14.8784 18.3401 14.8133 18.1253 14.8133 17.9056C14.8133 17.6109 14.9303 17.3284 15.1387 17.12C15.347 16.9116 15.6296 16.7946 15.9243 16.7946ZM7.0363 16.7946C7.25604 16.7946 7.47084 16.8598 7.65354 16.9818C7.83624 17.1039 7.97864 17.2774 8.06273 17.4804C8.14682 17.6834 8.16882 17.9068 8.12595 18.1223C8.08308 18.3379 7.97727 18.5358 7.8219 18.6912C7.66652 18.8466 7.46856 18.9524 7.25305 18.9952C7.03754 19.0381 6.81415 19.0161 6.61114 18.932C6.40814 18.8479 6.23462 18.7055 6.11255 18.5228C5.99047 18.3401 5.92531 18.1253 5.92531 17.9056C5.92531 17.6109 6.04236 17.3284 6.25071 17.12C6.45906 16.9116 6.74165 16.7946 7.0363 16.7946Z" fill="#101010"/>
</svg>
