<svg width="19" height="19" viewBox="0 0 19 19" fill="none" xmlns="http://www.w3.org/2000/svg">
    <path d="M18.6204 18.14C18.5572 18.2495 18.4663 18.3404 18.3569 18.4036C18.2474 18.4668 18.1232 18.5 17.9968 18.5H0.719164C0.592857 18.4999 0.468808 18.4665 0.359472 18.4033C0.250135 18.34 0.159361 18.2491 0.0962641 18.1397C0.0331668 18.0303 -3.2403e-05 17.9062 2.37314e-08 17.7799C3.24505e-05 17.6536 0.0332953 17.5295 0.0964488 17.4201C1.46696 15.0508 3.57897 13.3518 6.04374 12.5464C4.82456 11.8206 3.87733 10.7147 3.34751 9.39845C2.8177 8.08222 2.73461 6.62846 3.11099 5.26042C3.48736 3.89239 4.30241 2.68573 5.43095 1.82574C6.55949 0.965755 7.93912 0.5 9.35799 0.5C10.7769 0.5 12.1565 0.965755 13.285 1.82574C14.4136 2.68573 15.2286 3.89239 15.605 5.26042C15.9814 6.62846 15.8983 8.08222 15.3685 9.39845C14.8387 10.7147 13.8914 11.8206 12.6722 12.5464C15.137 13.3518 17.249 15.0508 18.6195 17.4201C18.6829 17.5295 18.7163 17.6536 18.7164 17.78C18.7166 17.9063 18.6835 18.0305 18.6204 18.14Z" fill="#101010"/>
</svg>
