<svg width="21" height="19" viewBox="0 0 21 19" fill="none" xmlns="http://www.w3.org/2000/svg">
<path d="M21.005 6.31387C21.005 12.8779 11.2723 18.191 10.8579 18.4105C10.7486 18.4692 10.6265 18.5 10.5025 18.5C10.3784 18.5 10.2563 18.4692 10.1471 18.4105C9.73261 18.191 0 12.8779 0 6.31387C0.00173735 4.77247 0.614826 3.2947 1.70476 2.20476C2.7947 1.11483 4.27247 0.501737 5.81387 0.5C7.75027 0.5 9.44567 1.3327 10.5025 2.74022C11.5593 1.3327 13.2547 0.5 15.1911 0.5C16.7325 0.501737 18.2103 1.11483 19.3002 2.20476C20.3901 3.2947 21.0032 4.77247 21.005 6.31387Z" fill="#101010"/>
</svg>
