<svg width="18" height="19" viewBox="0 0 18 19" fill="none" xmlns="http://www.w3.org/2000/svg">
    <path d="M9 0.5C7.21997 0.5 5.47991 1.02784 3.99987 2.01677C2.51983 3.00571 1.36628 4.41131 0.685088 6.05585C0.00389956 7.70038 -0.17433 9.50998 0.172936 11.2558C0.520203 13.0016 1.37737 14.6053 2.63604 15.864C3.89471 17.1226 5.49836 17.9798 7.24419 18.3271C8.99002 18.6743 10.7996 18.4961 12.4442 17.8149C14.0887 17.1337 15.4943 15.9802 16.4832 14.5001C17.4722 13.0201 18 11.28 18 9.5C17.9975 7.11382 17.0485 4.8261 15.3612 3.13882C13.6739 1.45154 11.3862 0.50252 9 0.5ZM16.6154 9.5C16.6161 10.477 16.4281 11.4449 16.0615 12.3506L12.1933 9.97163C12.0288 9.87014 11.8448 9.80439 11.6533 9.77865L9.67846 9.51211C9.40635 9.47663 9.12981 9.52225 8.8835 9.64324C8.6372 9.76424 8.43208 9.95524 8.29385 10.1923H7.53923L7.21039 9.51211C7.11948 9.32271 6.98643 9.15663 6.82143 9.02658C6.65643 8.89654 6.46386 8.80597 6.25846 8.76183L5.56616 8.61211L6.24289 7.42308H7.68894C7.92294 7.42262 8.15303 7.36308 8.35789 7.25L9.41798 6.665C9.51112 6.61308 9.59819 6.55097 9.6776 6.47981L12.0063 4.37346C12.2398 4.16422 12.395 3.88165 12.4463 3.57235C12.4976 3.26305 12.4419 2.94551 12.2885 2.67211L12.2573 2.61586C13.5604 3.23375 14.6615 4.20851 15.4329 5.42703C16.2043 6.64554 16.6143 8.05784 16.6154 9.5ZM10.3249 2.00058L11.0769 3.34711L8.74817 5.45346L7.68894 6.03846H6.24289C5.99949 6.0381 5.7603 6.10191 5.54942 6.22345C5.33854 6.345 5.16343 6.51998 5.04173 6.73077L4.28625 8.04875L3.40789 5.70875L4.35462 3.47C5.19261 2.82251 6.1566 2.3572 7.18484 2.10386C8.21308 1.85053 9.2829 1.81476 10.3258 1.99885L10.3249 2.00058ZM1.38462 9.5C1.38346 8.36809 1.636 7.25031 2.12366 6.22884L3.105 8.84836C3.18678 9.06525 3.32171 9.25813 3.4974 9.40933C3.67309 9.56053 3.88393 9.6652 4.11058 9.71375L5.9651 10.1127L6.29481 10.7981C6.40924 11.0312 6.58657 11.2276 6.80677 11.3653C7.02698 11.5029 7.28129 11.5762 7.54096 11.5769H7.66904L7.04337 12.9814C6.93313 13.2287 6.89782 13.503 6.94181 13.7701C6.9858 14.0373 7.10716 14.2857 7.29087 14.4846L7.30298 14.4967L9 16.2448L8.83212 17.1102C6.84332 17.0639 4.95135 16.2422 3.55995 14.8204C2.16856 13.3986 1.38792 11.4893 1.38462 9.5ZM10.2617 17.0098L10.3595 16.507C10.3997 16.2934 10.3893 16.0734 10.3292 15.8645C10.2691 15.6556 10.1609 15.4637 10.0134 15.3041C10.0091 15.3003 10.0051 15.2963 10.0013 15.292L8.30769 13.5448L9.49327 10.8846L11.4681 11.1512L15.4246 13.5846C14.8514 14.4848 14.0957 15.2548 13.2064 15.8448C12.3171 16.4348 11.314 16.8316 10.2617 17.0098Z" fill="#101010"/>
</svg>
