<svg width="12" height="12" viewBox="0 0 12 12" fill="none" xmlns="http://www.w3.org/2000/svg">
<path d="M5.29493 8.88661C5.34564 8.93727 5.38587 8.99742 5.41331 9.06363C5.44076 9.12985 5.45489 9.20082 5.45489 9.27249C5.45489 9.34417 5.44076 9.41514 5.41331 9.48136C5.38587 9.54757 5.34564 9.60772 5.29493 9.65837L3.11326 11.84C3.06261 11.8907 3.00246 11.931 2.93624 11.9584C2.87003 11.9859 2.79906 12 2.72738 12C2.65571 12 2.58473 11.9859 2.51852 11.9584C2.45231 11.931 2.39215 11.8907 2.3415 11.84L0.159837 9.65837C0.109163 9.6077 0.0689653 9.54754 0.0415404 9.48133C0.0141154 9.41512 0 9.34416 0 9.27249C0 9.20083 0.0141154 9.12987 0.0415404 9.06366C0.0689653 8.99745 0.109163 8.93729 0.159837 8.88661C0.262179 8.78427 0.400985 8.72677 0.545719 8.72677C0.617384 8.72677 0.688347 8.74089 0.754556 8.76832C0.820766 8.79574 0.880926 8.83594 0.9316 8.88661L2.18197 10.1377V0.545845C2.18197 0.401192 2.23943 0.262463 2.34171 0.160178C2.444 0.0578925 2.58273 0.000429123 2.72738 0.000429123C2.87203 0.000429123 3.01076 0.0578925 3.11305 0.160178C3.21533 0.262463 3.2728 0.401192 3.2728 0.545845V10.1377L4.52316 8.88661C4.57382 8.8359 4.63397 8.79567 4.70018 8.76822C4.76639 8.74078 4.83737 8.72665 4.90904 8.72665C4.98072 8.72665 5.05169 8.74078 5.11791 8.76822C5.18412 8.79567 5.24427 8.8359 5.29493 8.88661ZM11.8399 2.34163L9.65825 0.159963C9.6076 0.109252 9.54744 0.0690231 9.48123 0.0415755C9.41502 0.0141278 9.34404 0 9.27237 0C9.20069 0 9.12972 0.0141278 9.06351 0.0415755C8.99729 0.0690231 8.93714 0.109252 8.88649 0.159963L6.70482 2.34163C6.60248 2.44397 6.54499 2.58277 6.54499 2.72751C6.54499 2.87224 6.60248 3.01105 6.70482 3.11339C6.80717 3.21573 6.94597 3.27323 7.09071 3.27323C7.23544 3.27323 7.37425 3.21573 7.47659 3.11339L8.72695 1.86234V11.4542C8.72695 11.5988 8.78442 11.7375 8.8867 11.8398C8.98899 11.9421 9.12772 11.9996 9.27237 11.9996C9.41702 11.9996 9.55575 11.9421 9.65804 11.8398C9.76032 11.7375 9.81778 11.5988 9.81778 11.4542V1.86234L11.0681 3.11339C11.1705 3.21573 11.3093 3.27323 11.454 3.27323C11.5988 3.27323 11.7376 3.21573 11.8399 3.11339C11.9423 3.01105 11.9998 2.87224 11.9998 2.72751C11.9998 2.58277 11.9423 2.44397 11.8399 2.34163Z" fill="#DE9D62"/>
</svg>
