<svg width="20" height="21" viewBox="0 0 20 21" fill="none" xmlns="http://www.w3.org/2000/svg">
<path d="M12.0271 1.89281C12.0543 1.79128 12.1012 1.6961 12.1651 1.6127C12.2291 1.5293 12.3088 1.45932 12.3999 1.40676C12.4909 1.35419 12.5913 1.32008 12.6955 1.30636C12.7997 1.29264 12.9056 1.29959 13.0071 1.32681C14.4902 1.71376 15.8433 2.48906 16.9271 3.57286C18.0109 4.65667 18.7862 6.00979 19.1732 7.49287C19.2004 7.59438 19.2074 7.70026 19.1936 7.80446C19.1799 7.90866 19.1458 8.00913 19.0932 8.10014C19.0407 8.19115 18.9707 8.27091 18.8873 8.33487C18.8039 8.39882 18.7087 8.44572 18.6072 8.47288C18.5396 8.49063 18.4701 8.4997 18.4002 8.49988C18.224 8.49993 18.0528 8.44184 17.913 8.33461C17.7732 8.22739 17.6728 8.07703 17.6272 7.90687C17.3117 6.69599 16.6791 5.59116 15.7944 4.70628C14.9096 3.8214 13.8049 3.1885 12.5941 2.87282C12.4925 2.84577 12.3972 2.79895 12.3137 2.73504C12.2302 2.67114 12.1601 2.59139 12.1075 2.50037C12.0548 2.40935 12.0206 2.30884 12.0068 2.20459C11.993 2.10034 11.9999 1.99439 12.0271 1.89281ZM11.7941 6.07285C13.1731 6.44086 14.0591 7.32786 14.4271 8.70688C14.4727 8.87704 14.5732 9.0274 14.713 9.13462C14.8527 9.24185 15.024 9.29994 15.2002 9.29988C15.27 9.29971 15.3396 9.29063 15.4072 9.27288C15.5087 9.24573 15.6039 9.19883 15.6873 9.13488C15.7707 9.07092 15.8407 8.99116 15.8932 8.90015C15.9458 8.80914 15.9799 8.70867 15.9936 8.60447C16.0073 8.50027 16.0004 8.39439 15.9732 8.29287C15.4612 6.37685 14.1231 5.03884 12.2071 4.52684C12.1056 4.49972 11.9998 4.49286 11.8956 4.50665C11.7914 4.52045 11.691 4.55462 11.6 4.60723C11.5091 4.65983 11.4294 4.72984 11.3655 4.81324C11.3016 4.89665 11.2547 4.99183 11.2276 5.09334C11.2005 5.19485 11.1936 5.30071 11.2074 5.40488C11.2212 5.50904 11.2554 5.60947 11.308 5.70042C11.3606 5.79138 11.4306 5.87108 11.514 5.93499C11.5974 5.99889 11.6926 6.04573 11.7941 6.07285ZM19.0372 13.9459L14.3261 11.8349L14.3131 11.8289C14.0686 11.7243 13.8018 11.6823 13.5369 11.7068C13.272 11.7312 13.0174 11.8213 12.7961 11.9689C12.7701 11.9861 12.745 12.0048 12.7211 12.0249L10.2871 14.0999C8.74509 13.3509 7.15308 11.7709 6.40407 10.2489L8.48209 7.77787C8.50209 7.75287 8.52109 7.72787 8.53909 7.70087C8.68352 7.48017 8.77115 7.22718 8.79418 6.96443C8.81721 6.70168 8.77493 6.43731 8.67109 6.19485V6.18285L6.55407 1.46381C6.41681 1.14707 6.18079 0.883216 5.88125 0.711638C5.58171 0.54006 5.23471 0.469958 4.89206 0.511798C3.53701 0.690106 2.29321 1.35557 1.39296 2.38391C0.492701 3.41225 -0.00244095 4.73313 9.04873e-06 6.09985C9.04873e-06 14.0399 6.46007 20.5 14.4001 20.5C15.7669 20.5024 17.0878 20.0073 18.1161 19.107C19.1444 18.2068 19.8099 16.963 19.9882 15.6079C20.0301 15.2654 19.9602 14.9185 19.7888 14.619C19.6174 14.3194 19.3537 14.0834 19.0372 13.9459Z" fill="#B5B5B5"/>
</svg>
