<svg width="14" height="14" viewBox="0 0 14 14" fill="none" xmlns="http://www.w3.org/2000/svg">
<path d="M13.878 2.77832C13.8293 2.72008 13.7685 2.67324 13.6997 2.6411C13.631 2.60896 13.556 2.59231 13.4801 2.59232H3.02524L2.70833 0.851578C2.66492 0.612653 2.53904 0.396541 2.35262 0.240919C2.16621 0.0852962 1.93109 3.50964e-05 1.68825 0H0.518465C0.380959 0 0.249086 0.0546238 0.151855 0.151855C0.0546238 0.249086 0 0.380959 0 0.518465C0 0.65597 0.0546238 0.787843 0.151855 0.885074C0.249086 0.982305 0.380959 1.03693 0.518465 1.03693H1.68501L3.3415 10.1289C3.3903 10.3985 3.50946 10.6505 3.68693 10.8592C3.44199 11.088 3.26519 11.3802 3.17615 11.7033C3.08711 12.0264 3.0893 12.3679 3.18248 12.6899C3.27567 13.0118 3.4562 13.3017 3.70406 13.5273C3.95192 13.7529 4.25742 13.9055 4.5867 13.9681C4.91597 14.0307 5.25615 14.0008 5.56951 13.8819C5.88287 13.763 6.15716 13.5596 6.36198 13.2943C6.56679 13.0289 6.69413 12.7121 6.72986 12.3788C6.76559 12.0456 6.70832 11.7089 6.56441 11.4062H9.50799C9.392 11.649 9.33198 11.9148 9.33236 12.1839C9.33236 12.5428 9.43879 12.8937 9.63818 13.1921C9.83757 13.4905 10.121 13.7231 10.4526 13.8604C10.7841 13.9978 11.149 14.0337 11.501 13.9637C11.853 13.8937 12.1763 13.7208 12.4301 13.4671C12.6839 13.2133 12.8567 12.8899 12.9267 12.5379C12.9968 12.1859 12.9608 11.8211 12.8235 11.4895C12.6861 11.1579 12.4536 10.8745 12.1551 10.6751C11.8567 10.4757 11.5059 10.3693 11.147 10.3693H4.87162C4.7502 10.3693 4.63264 10.3266 4.53944 10.2488C4.44623 10.171 4.38329 10.063 4.36158 9.9435L4.15614 8.8139H11.6739C12.0381 8.81384 12.3908 8.68595 12.6704 8.45252C12.9501 8.21908 13.1389 7.89492 13.204 7.53653L13.9921 3.20346C14.0054 3.12857 14.0021 3.05166 13.9824 2.97819C13.9627 2.90471 13.927 2.83648 13.878 2.77832ZM5.70311 12.1839C5.70311 12.3377 5.6575 12.4881 5.57204 12.616C5.48659 12.7439 5.36513 12.8436 5.22302 12.9024C5.08092 12.9613 4.92455 12.9767 4.77369 12.9467C4.62283 12.9167 4.48426 12.8426 4.3755 12.7338C4.26674 12.6251 4.19267 12.4865 4.16266 12.3356C4.13265 12.1848 4.14805 12.0284 4.20691 11.8863C4.26578 11.7442 4.36546 11.6227 4.49335 11.5373C4.62124 11.4518 4.7716 11.4062 4.92541 11.4062C5.13167 11.4062 5.32948 11.4882 5.47533 11.634C5.62117 11.7798 5.70311 11.9777 5.70311 12.1839ZM11.9247 12.1839C11.9247 12.3377 11.8791 12.4881 11.7936 12.616C11.7082 12.7439 11.5867 12.8436 11.4446 12.9024C11.3025 12.9613 11.1461 12.9767 10.9953 12.9467C10.8444 12.9167 10.7058 12.8426 10.5971 12.7338C10.4883 12.6251 10.4142 12.4865 10.3842 12.3356C10.3542 12.1848 10.3696 12.0284 10.4285 11.8863C10.4874 11.7442 10.587 11.6227 10.7149 11.5373C10.8428 11.4518 10.9932 11.4062 11.147 11.4062C11.3532 11.4062 11.5511 11.4882 11.6969 11.634C11.8427 11.7798 11.9247 11.9777 11.9247 12.1839ZM12.1839 7.35118C12.1622 7.47097 12.0989 7.57928 12.0053 7.65713C11.9117 7.73498 11.7937 7.77741 11.6719 7.77697H3.96755L3.21383 3.62925H12.8586L12.1839 7.35118Z" fill="#DE9D62"/>
</svg>
