<svg width="18" height="12" viewBox="0 0 18 12" fill="none" xmlns="http://www.w3.org/2000/svg">
<path d="M8.43819 11.5869C8.40869 11.7049 8.34061 11.8096 8.24476 11.8845C8.14891 11.9593 8.03079 12 7.90918 12C7.86323 12.0002 7.81743 11.9947 7.77284 11.9836L5.59137 11.4383C5.53064 11.423 5.47299 11.3974 5.42095 11.3626L3.78485 10.2719C3.66453 10.1916 3.58102 10.0668 3.5527 9.92496C3.52439 9.78312 3.55358 9.63583 3.63385 9.51551C3.71413 9.39519 3.83891 9.31168 3.98076 9.28336C4.1226 9.25505 4.26988 9.28424 4.39021 9.36451L5.94723 10.4028L8.03734 10.9256C8.10717 10.9426 8.17298 10.9731 8.23096 11.0156C8.28894 11.058 8.33797 11.1115 8.37522 11.1729C8.41247 11.2344 8.4372 11.3026 8.44801 11.3736C8.45882 11.4447 8.45548 11.5171 8.43819 11.5869ZM17.4838 5.01113C17.439 5.14705 17.3678 5.27275 17.2742 5.38099C17.1806 5.48922 17.0664 5.57783 16.9384 5.64171L15.3241 6.44885L11.5693 10.2044C11.5026 10.271 11.4199 10.3191 11.3291 10.3442C11.2383 10.3693 11.1425 10.3704 11.0512 10.3475L6.68824 9.2568C6.62189 9.24014 6.55924 9.21124 6.5035 9.17159L2.71866 6.4693L1.06347 5.64171C0.804788 5.51239 0.608051 5.28563 0.516519 5.0113C0.424988 4.73696 0.446156 4.4375 0.575369 4.17876L2.26941 0.791357C2.39873 0.532673 2.62549 0.335936 2.89982 0.244404C3.17416 0.152873 3.47362 0.174041 3.73236 0.303254L5.2362 1.05313L8.84926 0.021027C8.94727 -0.007009 9.05119 -0.007009 9.14921 0.021027L12.7623 1.05313L14.2661 0.303254C14.5248 0.174041 14.8243 0.152873 15.0986 0.244404C15.373 0.335936 15.5997 0.532673 15.729 0.791357L17.4231 4.17876C17.4877 4.30661 17.5263 4.446 17.5368 4.58887C17.5472 4.73174 17.5292 4.87526 17.4838 5.01113ZM14.3356 5.89326L12.4807 2.1834H10.3115L7.36381 5.04658C8.22686 5.59808 9.58005 5.7501 10.7942 4.52643C10.889 4.43086 11.0158 4.37373 11.1502 4.36605C11.2846 4.35838 11.4171 4.40069 11.5222 4.48485L13.868 6.36432L14.3356 5.89326ZM1.55089 4.66618L2.75683 5.26949L4.45088 1.88209L3.24494 1.27878L1.55089 4.66618ZM13.0902 7.13669L11.2011 5.62398C9.86909 6.71471 8.17777 6.85855 6.77618 5.96484C6.63831 5.87714 6.52191 5.75958 6.43557 5.62085C6.34923 5.48212 6.29516 5.32577 6.27736 5.16334C6.25956 5.00091 6.27848 4.83656 6.33273 4.68243C6.38697 4.52829 6.47515 4.38832 6.59076 4.27284C6.5924 4.27085 6.59423 4.26903 6.59621 4.26738L9.65435 1.30127L8.99991 1.11449L5.56274 2.09683L3.69691 5.82781L7.05091 8.22402L11.0144 9.21454L13.0902 7.13669ZM16.4469 4.66618L14.7549 1.27878L13.5489 1.88209L15.243 5.26949L16.4469 4.66618Z" fill="#DE9D62"/>
</svg>
