<svg width="14" height="14" viewBox="0 0 14 14" fill="none" xmlns="http://www.w3.org/2000/svg">
<path d="M8.31763 1.40533C8.33528 1.33933 8.36577 1.27746 8.40734 1.22325C8.44891 1.16905 8.50075 1.12356 8.55991 1.08939C8.61906 1.05523 8.68437 1.03305 8.7521 1.02413C8.81983 1.01522 8.88865 1.01973 8.95464 1.03742C9.91864 1.28894 10.7982 1.79289 11.5026 2.49736C12.2071 3.20183 12.7111 4.08136 12.9626 5.04536C12.9803 5.11135 12.9848 5.18017 12.9759 5.2479C12.9669 5.31563 12.9448 5.38094 12.9106 5.44009C12.8764 5.49925 12.831 5.55109 12.7767 5.59266C12.7225 5.63424 12.6607 5.66472 12.5947 5.68237C12.5507 5.69391 12.5055 5.6998 12.4601 5.69992C12.3455 5.69992 12.2342 5.66206 12.1433 5.59224C12.0524 5.52242 11.9872 5.42454 11.9577 5.31382C11.7525 4.52687 11.3412 3.80886 10.7662 3.23381C10.1911 2.65876 9.47313 2.24747 8.68619 2.04233C8.62013 2.02475 8.55819 1.99432 8.50391 1.95278C8.44963 1.91124 8.40407 1.8594 8.36984 1.80024C8.33561 1.74108 8.31338 1.67574 8.30442 1.60798C8.29546 1.54022 8.29995 1.47135 8.31763 1.40533ZM8.16618 4.12235C9.06254 4.36156 9.63844 4.93746 9.87765 5.83382C9.90715 5.94455 9.97241 6.04242 10.0633 6.11225C10.1541 6.18207 10.2655 6.21992 10.3801 6.21992C10.4255 6.21981 10.4707 6.21391 10.5147 6.20237C10.5806 6.18472 10.6425 6.15424 10.6967 6.11267C10.7509 6.0711 10.7964 6.01925 10.8306 5.9601C10.8648 5.90094 10.8869 5.83563 10.8958 5.7679C10.9048 5.70017 10.9002 5.63135 10.8826 5.56537C10.5498 4.31996 9.68005 3.45025 8.43463 3.11744C8.36865 3.09982 8.29984 3.09536 8.23213 3.10432C8.16443 3.11329 8.09915 3.1355 8.04003 3.1697C7.98091 3.20389 7.9291 3.24939 7.88757 3.30361C7.84603 3.35782 7.81558 3.41969 7.79795 3.48567C7.78032 3.55166 7.77587 3.62046 7.78483 3.68817C7.7938 3.75588 7.81601 3.82115 7.8502 3.88028C7.8844 3.9394 7.9299 3.9912 7.98412 4.03274C8.03833 4.07428 8.1002 4.10473 8.16618 4.12235ZM13.4923 10.3202C13.3764 11.2009 12.9439 12.0094 12.2755 12.5946C11.607 13.1797 10.7485 13.5016 9.8601 13.5C4.69905 13.5 0.500006 9.30095 0.500006 4.1399C0.498413 3.25153 0.820256 2.39296 1.40542 1.72454C1.99059 1.05612 2.79906 0.623569 3.67984 0.507669C3.90256 0.480473 4.12811 0.526039 4.32281 0.637565C4.51752 0.749091 4.67093 0.920595 4.76015 1.12647L6.13296 4.19125V4.19905C6.20127 4.35665 6.22948 4.52871 6.21507 4.69987C6.20067 4.87103 6.1441 5.03595 6.05041 5.17991C6.03871 5.19746 6.02636 5.21371 6.01336 5.22996L4.66005 6.83418C5.1469 7.82349 6.18171 8.8492 7.18402 9.33735L8.76614 7.99119C8.78167 7.97813 8.79795 7.96598 8.81489 7.95479C8.95873 7.85885 9.12422 7.80029 9.29639 7.7844C9.46856 7.76851 9.64197 7.7958 9.80095 7.86379L9.8094 7.86769L12.8716 9.23985C13.0778 9.32876 13.2497 9.48203 13.3616 9.67676C13.4735 9.87149 13.5194 10.0972 13.4923 10.3202ZM12.4601 10.1902C12.4601 10.1902 12.4556 10.1902 12.453 10.1902L9.39794 8.8219L7.81518 10.1681C7.79982 10.1811 7.78377 10.1932 7.76708 10.2045C7.61742 10.3043 7.44441 10.3636 7.26498 10.3766C7.08554 10.3896 6.9058 10.3558 6.74332 10.2786C5.52586 9.69031 4.31229 8.48585 3.72339 7.28138C3.6454 7.12009 3.61041 6.94138 3.6218 6.76259C3.63319 6.58379 3.69057 6.41097 3.78839 6.26087C3.79941 6.24325 3.8118 6.22652 3.82544 6.21082L5.18005 4.60466L3.81504 1.54963C3.81478 1.54704 3.81478 1.54442 3.81504 1.54183C3.1847 1.62405 2.60595 1.93324 2.18717 2.41148C1.76839 2.88972 1.53831 3.50422 1.54002 4.1399C1.54242 6.34579 2.41978 8.46063 3.97957 10.0204C5.53937 11.5802 7.65421 12.4576 9.8601 12.46C10.4954 12.4622 11.1097 12.2329 11.5882 11.815C12.0668 11.3972 12.3767 10.8193 12.4601 10.1895V10.1902Z" fill="#DE9D62"/>
</svg>
