<svg width="14" height="14" viewBox="0 0 14 14" fill="none" xmlns="http://www.w3.org/2000/svg">
<path d="M13.3585 5.58318L7.75803 0.299135C7.75529 0.296746 7.75272 0.294173 7.75033 0.291434C7.54414 0.103912 7.27543 0 6.99672 0C6.718 0 6.4493 0.103912 6.2431 0.291434L6.2354 0.299135L0.641228 5.58318C0.527116 5.68811 0.436029 5.81559 0.373729 5.95754C0.311429 6.09949 0.279273 6.25283 0.279297 6.40785V12.8799C0.279297 13.177 0.397307 13.4619 0.607365 13.6719C0.817424 13.882 1.10232 14 1.39939 14H4.75968C5.05675 14 5.34165 13.882 5.5517 13.6719C5.76176 13.4619 5.87977 13.177 5.87977 12.8799V9.51962H8.11996V12.8799C8.11996 13.177 8.23797 13.4619 8.44803 13.6719C8.65809 13.882 8.94299 14 9.24006 14H12.6003C12.8974 14 13.1823 13.882 13.3924 13.6719C13.6024 13.4619 13.7204 13.177 13.7204 12.8799V6.40785C13.7205 6.25283 13.6883 6.09949 13.626 5.95754C13.5637 5.81559 13.4726 5.68811 13.3585 5.58318ZM12.6003 12.8799H9.24006V9.51962C9.24006 9.22255 9.12205 8.93765 8.91199 8.72759C8.70193 8.51753 8.41703 8.39952 8.11996 8.39952H5.87977C5.58271 8.39952 5.2978 8.51753 5.08775 8.72759C4.87769 8.93765 4.75968 9.22255 4.75968 9.51962V12.8799H1.39939V6.40785L1.40709 6.40085L6.99987 1.1189L12.5933 6.39945L12.601 6.40645L12.6003 12.8799Z" fill="#DE9D62"/>
</svg>
