<svg width="16" height="14" viewBox="0 0 16 14" fill="none" xmlns="http://www.w3.org/2000/svg">
<path d="M13.9585 2.66667H11.2502V2.125C11.2502 1.69402 11.079 1.2807 10.7742 0.975952C10.4695 0.671205 10.0561 0.5 9.62516 0.5H6.37516C5.94419 0.5 5.53086 0.671205 5.22611 0.975952C4.92137 1.2807 4.75016 1.69402 4.75016 2.125V2.66667H2.04183C1.75451 2.66667 1.47896 2.7808 1.2758 2.98397C1.07263 3.18713 0.958496 3.46268 0.958496 3.75V12.4167C0.958496 12.704 1.07263 12.9795 1.2758 13.1827C1.47896 13.3859 1.75451 13.5 2.04183 13.5H13.9585C14.2458 13.5 14.5214 13.3859 14.7245 13.1827C14.9277 12.9795 15.0418 12.704 15.0418 12.4167V3.75C15.0418 3.46268 14.9277 3.18713 14.7245 2.98397C14.5214 2.7808 14.2458 2.66667 13.9585 2.66667ZM5.8335 2.125C5.8335 1.98134 5.89056 1.84357 5.99215 1.74198C6.09373 1.6404 6.2315 1.58333 6.37516 1.58333H9.62516C9.76882 1.58333 9.9066 1.6404 10.0082 1.74198C10.1098 1.84357 10.1668 1.98134 10.1668 2.125V2.66667H5.8335V2.125ZM13.9585 3.75V6.56734C12.1302 7.56251 10.0817 8.08371 8.00016 8.08333C5.91868 8.08371 3.87024 7.56276 2.04183 6.56802V3.75H13.9585ZM13.9585 12.4167H2.04183V7.78813C3.89699 8.69555 5.93497 9.16707 8.00016 9.16667C10.0654 9.16671 12.1033 8.69497 13.9585 7.78745V12.4167ZM6.37516 6.45833C6.37516 6.31467 6.43223 6.1769 6.53381 6.07532C6.6354 5.97374 6.77317 5.91667 6.91683 5.91667H9.0835C9.22716 5.91667 9.36493 5.97374 9.46651 6.07532C9.5681 6.1769 9.62516 6.31467 9.62516 6.45833C9.62516 6.60199 9.5681 6.73977 9.46651 6.84135C9.36493 6.94293 9.22716 7 9.0835 7H6.91683C6.77317 7 6.6354 6.94293 6.53381 6.84135C6.43223 6.73977 6.37516 6.60199 6.37516 6.45833Z" fill="#DE9D62"/>
</svg>
