<svg width="18" height="14" viewBox="0 0 18 14" fill="none" xmlns="http://www.w3.org/2000/svg">
<path d="M15.2175 4.51304V3.32609C15.2175 2.57656 14.9198 1.85774 14.3898 1.32774C13.8598 0.797748 13.141 0.5 12.3914 0.5H5.60883C4.85931 0.5 4.14048 0.797748 3.61049 1.32774C3.08049 1.85774 2.78275 2.57656 2.78275 3.32609V4.51304C2.14389 4.64277 1.56952 4.98937 1.15697 5.49411C0.744413 5.99886 0.519043 6.63071 0.519043 7.28261C0.519043 7.9345 0.744413 8.56636 1.15697 9.0711C1.56952 9.57585 2.14389 9.92245 2.78275 10.0522V12.3696C2.78275 12.6694 2.90184 12.9569 3.11384 13.1689C3.32584 13.3809 3.61337 13.5 3.91318 13.5H14.0871C14.3869 13.5 14.6744 13.3809 14.8864 13.1689C15.0984 12.9569 15.2175 12.6694 15.2175 12.3696V10.0522C15.8564 9.92245 16.4308 9.57585 16.8433 9.0711C17.2559 8.56636 17.4812 7.9345 17.4812 7.28261C17.4812 6.63071 17.2559 5.99886 16.8433 5.49411C16.4308 4.98937 15.8564 4.64277 15.2175 4.51304ZM5.60883 1.63043H12.3914C12.8412 1.63043 13.2725 1.80908 13.5904 2.12708C13.9084 2.44508 14.0871 2.87637 14.0871 3.32609V4.51304C13.4492 4.6442 12.876 4.99129 12.4642 5.49579C12.0523 6.00029 11.827 6.63136 11.8262 7.28261H6.17405C6.17325 6.63136 5.94795 6.00029 5.53611 5.49579C5.12427 4.99129 4.55109 4.6442 3.91318 4.51304V3.32609C3.91318 2.87637 4.09183 2.44508 4.40983 2.12708C4.72782 1.80908 5.15912 1.63043 5.60883 1.63043ZM14.6799 8.97826H14.6523C14.5024 8.97826 14.3586 9.03781 14.2526 9.14381C14.1466 9.24981 14.0871 9.39357 14.0871 9.54348V12.3696H3.91318V9.54348C3.91318 9.39357 3.85363 9.24981 3.74763 9.14381C3.64163 9.03781 3.49787 8.97826 3.34796 8.97826H3.32041C2.98627 8.97283 2.66118 8.86878 2.38598 8.67919C2.11078 8.4896 1.89774 8.22292 1.77361 7.91264C1.64949 7.60236 1.61981 7.26232 1.68832 6.93524C1.75683 6.60815 1.92046 6.30859 2.15866 6.0742C2.39686 5.83981 2.69901 5.68103 3.02716 5.6178C3.35531 5.55458 3.69483 5.58973 4.00307 5.71884C4.3113 5.84795 4.57452 6.06526 4.75965 6.34348C4.94478 6.6217 5.04357 6.94842 5.04362 7.28261V10.1087C5.04362 10.2586 5.10316 10.4024 5.20916 10.5084C5.31516 10.6144 5.45893 10.6739 5.60883 10.6739C5.75874 10.6739 5.9025 10.6144 6.0085 10.5084C6.1145 10.4024 6.17405 10.2586 6.17405 10.1087V8.41304H11.8262V10.1087C11.8262 10.2586 11.8858 10.4024 11.9918 10.5084C12.0978 10.6144 12.2415 10.6739 12.3914 10.6739C12.5413 10.6739 12.6851 10.6144 12.7911 10.5084C12.8971 10.4024 12.9567 10.2586 12.9567 10.1087V7.28261C12.9567 6.94842 13.0555 6.6217 13.2406 6.34348C13.4258 6.06526 13.689 5.84795 13.9972 5.71884C14.3054 5.58973 14.645 5.55458 14.9731 5.6178C15.3013 5.68103 15.6034 5.83981 15.8416 6.0742C16.0798 6.30859 16.2434 6.60815 16.312 6.93524C16.3805 7.26232 16.3508 7.60236 16.2267 7.91264C16.1025 8.22292 15.8895 8.4896 15.6143 8.67919C15.3391 8.86878 15.014 8.97283 14.6799 8.97826Z" fill="#DE9D62"/>
</svg>
