<svg width="16" height="14" viewBox="0 0 16 14" fill="none" xmlns="http://www.w3.org/2000/svg">
<path d="M15.197 13.1481C14.132 11.307 12.4908 9.98674 10.5755 9.36089C11.5229 8.79691 12.259 7.93752 12.6707 6.91471C13.0824 5.89191 13.1469 4.76223 12.8545 3.69918C12.562 2.63612 11.9286 1.69846 11.0517 1.03019C10.1747 0.361924 9.10266 0 8.0001 0C6.89754 0 5.82547 0.361924 4.94852 1.03019C4.07156 1.69846 3.43822 2.63612 3.14575 3.69918C2.85327 4.76223 2.91785 5.89191 3.32955 6.91471C3.74125 7.93752 4.47731 8.79691 5.4247 9.36089C3.50941 9.98604 1.86823 11.3063 0.803242 13.1481C0.764187 13.2118 0.738282 13.2827 0.727056 13.3565C0.71583 13.4304 0.719509 13.5057 0.737878 13.5781C0.756246 13.6505 0.788931 13.7185 0.834004 13.7781C0.879077 13.8377 0.935626 13.8876 1.00031 13.925C1.065 13.9624 1.13652 13.9864 1.21064 13.9957C1.28477 14.0049 1.36 13.9993 1.4319 13.979C1.5038 13.9587 1.57091 13.9243 1.62928 13.8777C1.68764 13.831 1.73608 13.7732 1.77173 13.7075C3.08915 11.4307 5.41771 10.0713 8.0001 10.0713C10.5825 10.0713 12.9111 11.4307 14.2285 13.7075C14.2641 13.7732 14.3126 13.831 14.3709 13.8777C14.4293 13.9243 14.4964 13.9587 14.5683 13.979C14.6402 13.9993 14.7154 14.0049 14.7896 13.9957C14.8637 13.9864 14.9352 13.9624 14.9999 13.925C15.0646 13.8876 15.1211 13.8377 15.1662 13.7781C15.2113 13.7185 15.244 13.6505 15.2623 13.5781C15.2807 13.5057 15.2844 13.4304 15.2731 13.3565C15.2619 13.2827 15.236 13.2118 15.197 13.1481ZM4.0842 5.03663C4.0842 4.26214 4.31387 3.50504 4.74415 2.86107C5.17444 2.21711 5.78601 1.71519 6.50155 1.41881C7.21709 1.12242 8.00444 1.04488 8.76405 1.19597C9.52366 1.34707 10.2214 1.72002 10.7691 2.26767C11.3167 2.81532 11.6897 3.51306 11.8408 4.27267C11.9918 5.03228 11.9143 5.81964 11.6179 6.53517C11.3215 7.25071 10.8196 7.86229 10.1757 8.29257C9.53169 8.72286 8.77459 8.95252 8.0001 8.95252C6.96188 8.95141 5.9665 8.53849 5.23237 7.80436C4.49824 7.07022 4.08531 6.07485 4.0842 5.03663Z" fill="#DE9D62"/>
</svg>
