<svg width="20" height="20" viewBox="0 0 20 20" fill="none" xmlns="http://www.w3.org/2000/svg">
<path d="M10 0C8.02219 0 6.08879 0.58649 4.4443 1.6853C2.79981 2.78412 1.51809 4.3459 0.761209 6.17316C0.00433284 8.00042 -0.1937 10.0111 0.192152 11.9509C0.578004 13.8907 1.53041 15.6725 2.92894 17.0711C4.32746 18.4696 6.10929 19.422 8.0491 19.8078C9.98891 20.1937 11.9996 19.9957 13.8268 19.2388C15.6541 18.4819 17.2159 17.2002 18.3147 15.5557C19.4135 13.9112 20 11.9778 20 10C19.9972 7.34869 18.9427 4.80678 17.068 2.93202C15.1932 1.05727 12.6513 0.00279983 10 0ZM10 18.4615C8.32647 18.4615 6.69052 17.9653 5.29902 17.0355C3.90753 16.1057 2.823 14.7842 2.18256 13.2381C1.54213 11.6919 1.37456 9.99061 1.70105 8.34923C2.02754 6.70786 2.83343 5.20016 4.01679 4.01679C5.20016 2.83342 6.70786 2.02754 8.34924 1.70105C9.99062 1.37456 11.6919 1.54212 13.2381 2.18256C14.7842 2.82299 16.1057 3.90753 17.0355 5.29902C17.9653 6.69051 18.4615 8.32646 18.4615 10C18.459 12.2434 17.5667 14.3941 15.9804 15.9804C14.3941 17.5667 12.2434 18.459 10 18.4615ZM10 4.61538C9.23942 4.61555 8.49597 4.84121 7.86362 5.26384C7.23128 5.68647 6.73843 6.2871 6.4474 6.98979C6.15636 7.69248 6.08019 8.46569 6.22853 9.21166C6.37687 9.95763 6.74304 10.6429 7.28077 11.1808L6.23654 13.8038C6.16685 13.9788 6.14106 14.1682 6.16141 14.3554C6.18176 14.5427 6.24764 14.7221 6.3533 14.878C6.45895 15.0339 6.60117 15.1616 6.76753 15.2499C6.9339 15.3382 7.11935 15.3845 7.30769 15.3846H12.6923C12.8807 15.3845 13.0661 15.3382 13.2325 15.2499C13.3988 15.1616 13.5411 15.0339 13.6467 14.878C13.7524 14.7221 13.8182 14.5427 13.8386 14.3554C13.8589 14.1682 13.8332 13.9788 13.7635 13.8038L12.7192 11.1808C13.257 10.6429 13.6231 9.95763 13.7715 9.21166C13.9198 8.46569 13.8436 7.69248 13.5526 6.98979C13.2616 6.2871 12.7687 5.68647 12.1364 5.26384C11.504 4.84121 10.7606 4.61555 10 4.61538ZM11.0875 11.2404L12.125 13.8462H7.875L8.9125 11.2404C8.97585 11.0813 8.98434 10.9057 8.93662 10.7413C8.8889 10.5769 8.7877 10.4331 8.64904 10.3327C8.25347 10.0471 7.95862 9.6434 7.80683 9.1797C7.65504 8.716 7.65412 8.21612 7.80422 7.75186C7.95431 7.28761 8.24769 6.88288 8.64221 6.5958C9.03673 6.30872 9.51209 6.15408 10 6.15408C10.4879 6.15408 10.9633 6.30872 11.3578 6.5958C11.7523 6.88288 12.0457 7.28761 12.1958 7.75186C12.3459 8.21612 12.345 8.716 12.1932 9.1797C12.0414 9.6434 11.7465 10.0471 11.351 10.3327C11.2123 10.4331 11.1111 10.5769 11.0634 10.7413C11.0157 10.9057 11.0241 11.0813 11.0875 11.2404Z" fill="white"/>
</svg>
