<svg width="18" height="18" viewBox="0 0 18 18" fill="none" xmlns="http://www.w3.org/2000/svg">
<path d="M10.5005 0.75C10.5005 0.551088 10.5795 0.360321 10.7202 0.219669C10.8608 0.0790176 11.0516 0 11.2505 0H16.5005C16.8983 0 17.2798 0.158035 17.5611 0.439341C17.8425 0.720644 18.0005 1.10217 18.0005 1.5V16.5C18.0005 16.8978 17.8425 17.2794 17.5611 17.5607C17.2798 17.842 16.8983 18 16.5005 18H11.2505C11.0516 18 10.8608 17.921 10.7202 17.7803C10.5795 17.6397 10.5005 17.4489 10.5005 17.25C10.5005 17.0511 10.5795 16.8603 10.7202 16.7197C10.8608 16.579 11.0516 16.5 11.2505 16.5H16.5005V1.5H11.2505C11.0516 1.5 10.8608 1.42098 10.7202 1.28033C10.5795 1.13968 10.5005 0.948912 10.5005 0.75ZM0.219864 9.53063L3.96986 13.2806C4.11059 13.4214 4.30147 13.5004 4.50049 13.5004C4.69951 13.5004 4.89038 13.4214 5.03111 13.2806C5.17184 13.1399 5.25091 12.949 5.25091 12.75C5.25091 12.551 5.17184 12.3601 5.03111 12.2194L2.5608 9.75H11.2505C11.4494 9.75 11.6402 9.67098 11.7808 9.53033C11.9215 9.38968 12.0005 9.19891 12.0005 9C12.0005 8.80109 11.9215 8.61032 11.7808 8.46967C11.6402 8.32902 11.4494 8.25 11.2505 8.25H2.5608L5.03111 5.78063C5.17184 5.63989 5.25091 5.44902 5.25091 5.25C5.25091 5.05098 5.17184 4.86011 5.03111 4.71937C4.89038 4.57864 4.69951 4.49958 4.50049 4.49958C4.30147 4.49958 4.11059 4.57864 3.96986 4.71937L0.219864 8.46937C0.150131 8.53903 0.0948105 8.62175 0.0570679 8.7128C0.0193253 8.80384 -0.000101089 8.90144 -0.000101089 9C-0.000101089 9.09856 0.0193253 9.19616 0.0570679 9.2872C0.0948105 9.37825 0.150131 9.46097 0.219864 9.53063Z" fill="white"/>
</svg>
