<svg width="18" height="14" viewBox="0 0 18 14" fill="none" xmlns="http://www.w3.org/2000/svg">
<path d="M12.6468 0C11.1407 0 9.8221 0.647653 9.00014 1.74239C8.17817 0.647653 6.85953 0 5.35344 0C4.15457 0.00135127 3.0052 0.478198 2.15747 1.32593C1.30974 2.17365 0.832894 3.32303 0.831543 4.5219C0.831543 9.62727 8.40135 13.7597 8.72372 13.9304C8.80868 13.9761 8.90366 14 9.00014 14C9.09661 14 9.19159 13.9761 9.27655 13.9304C9.59892 13.7597 17.1687 9.62727 17.1687 4.5219C17.1674 3.32303 16.6905 2.17365 15.8428 1.32593C14.9951 0.478198 13.8457 0.00135127 12.6468 0ZM9.00014 12.7488C7.66836 11.9728 1.99848 8.43772 1.99848 4.5219C1.99964 3.63247 2.35348 2.77979 2.98241 2.15087C3.61133 1.52194 4.46401 1.1681 5.35344 1.16694C6.77201 1.16694 7.96302 1.92254 8.46042 3.13616C8.50438 3.24317 8.57916 3.3347 8.67526 3.39912C8.77136 3.46353 8.88444 3.49793 9.00014 3.49793C9.11583 3.49793 9.22891 3.46353 9.32501 3.39912C9.42111 3.3347 9.49589 3.24317 9.53985 3.13616C10.0373 1.92035 11.2283 1.16694 12.6468 1.16694C13.5363 1.1681 14.3889 1.52194 15.0179 2.15087C15.6468 2.77979 16.0006 3.63247 16.0018 4.5219C16.0018 8.43188 10.3304 11.9721 9.00014 12.7488Z" fill="#DE9D62"/>
</svg>
