<svg width="24" height="24" viewBox="0 0 24 24" fill="none" xmlns="http://www.w3.org/2000/svg">
<path d="M16.4068 11.1538H11.3298M13.8683 8.61538V13.6923M1 1H5.23077L5.67585 5.23077M5.67585 5.23077L6.764 15.5623C6.80788 15.9779 7.004 16.3626 7.31458 16.6422C7.62516 16.9219 8.02823 17.0767 8.44615 17.0769H19.1415C19.5188 17.0769 19.8852 16.9508 20.1827 16.7187C20.4801 16.4866 20.6914 16.1618 20.7831 15.7958L22.8985 7.33431C22.961 7.08478 22.9658 6.82428 22.9125 6.57262C22.8592 6.32095 22.7493 6.08475 22.591 5.88195C22.4328 5.67915 22.2304 5.5151 21.9992 5.40226C21.768 5.28943 21.5142 5.23078 21.2569 5.23077H5.67585ZM18.6778 23C18.4534 23 18.2382 22.9109 18.0795 22.7522C17.9208 22.5935 17.8317 22.3783 17.8317 22.1538C17.8317 21.9294 17.9208 21.7142 18.0795 21.5555C18.2382 21.3968 18.4534 21.3077 18.6778 21.3077C18.9023 21.3077 19.1175 21.3968 19.2762 21.5555C19.4349 21.7142 19.524 21.9294 19.524 22.1538C19.524 22.3783 19.4349 22.5935 19.2762 22.7522C19.1175 22.9109 18.9023 23 18.6778 23ZM7.67785 23C7.45343 23 7.23821 22.9109 7.07953 22.7522C6.92084 22.5935 6.83169 22.3783 6.83169 22.1538C6.83169 21.9294 6.92084 21.7142 7.07953 21.5555C7.23821 21.3968 7.45343 21.3077 7.67785 21.3077C7.90226 21.3077 8.11748 21.3968 8.27617 21.5555C8.43485 21.7142 8.524 21.9294 8.524 22.1538C8.524 22.3783 8.43485 22.5935 8.27617 22.7522C8.11748 22.9109 7.90226 23 7.67785 23Z" stroke="white" stroke-width="2" stroke-linecap="round" stroke-linejoin="round"/>
</svg>
