<svg width="20" height="20" viewBox="0 0 20 20" fill="none" xmlns="http://www.w3.org/2000/svg">
<path d="M19.7061 18.2921C19.799 18.385 19.8727 18.4953 19.923 18.6167C19.9733 18.7381 19.9992 18.8682 19.9992 18.9996C19.9992 19.131 19.9733 19.2611 19.923 19.3825C19.8727 19.5039 19.799 19.6142 19.7061 19.7071C19.6132 19.8 19.5029 19.8737 19.3815 19.924C19.2601 19.9743 19.13 20.0001 18.9986 20.0001C18.8672 20.0001 18.7371 19.9743 18.6157 19.924C18.4943 19.8737 18.384 19.8 18.2911 19.7071L9.9986 11.4133L1.7061 19.7071C1.51846 19.8947 1.26397 20.0001 0.998603 20.0001C0.733239 20.0001 0.478744 19.8947 0.291103 19.7071C0.103462 19.5194 -0.00195312 19.2649 -0.00195312 18.9996C-0.00195313 18.7342 0.103462 18.4797 0.291103 18.2921L8.58485 9.99958L0.291103 1.70708C0.103462 1.51944 -0.00195312 1.26494 -0.00195312 0.999579C-0.00195312 0.734215 0.103462 0.47972 0.291103 0.292079C0.478744 0.104439 0.733239 -0.000976562 0.998603 -0.000976562C1.26397 -0.000976562 1.51846 0.104439 1.7061 0.292079L9.9986 8.58583L18.2911 0.292079C18.4787 0.104439 18.7332 -0.000976568 18.9986 -0.000976562C19.264 -0.000976557 19.5185 0.104439 19.7061 0.292079C19.8937 0.47972 19.9992 0.734215 19.9992 0.999579C19.9992 1.26494 19.8937 1.51944 19.7061 1.70708L11.4124 9.99958L19.7061 18.2921Z" fill="#343330"/>
</svg>
