<svg width="19" height="18" viewBox="0 0 19 18" fill="none" xmlns="http://www.w3.org/2000/svg">
    <path fill-rule="evenodd" clip-rule="evenodd" d="M14.1274 0H5.12738C2.65261 0 0.62738 2.02432 0.62738 4.5V13.5C0.62738 15.9748 2.65261 18 5.12738 18H14.1274C16.6022 18 18.6274 15.9748 18.6274 13.5V4.5C18.6274 2.02432 16.6022 0 14.1274 0ZM9.62738 12.7499C7.55603 12.7499 5.87731 11.0704 5.87731 9C5.87731 6.92865 7.55603 5.24993 9.62738 5.24993C11.6978 5.24993 13.3775 6.92865 13.3775 9C13.3775 11.0704 11.6978 12.7499 9.62738 12.7499ZM13.3775 4.12492C13.3775 4.74615 13.8806 5.24992 14.5025 5.24992C15.1244 5.24992 15.6275 4.74615 15.6275 4.12492C15.6275 3.5037 15.1244 2.99992 14.5025 2.99992C13.8806 2.99992 13.3775 3.5037 13.3775 4.12492Z" fill="#DE9D62"/>
</svg>
