<svg width="18" height="15" viewBox="0 0 18 15" fill="none" xmlns="http://www.w3.org/2000/svg">
    <path d="M7.96721 14.7819C8.03639 14.7128 8.09127 14.6307 8.12871 14.5404C8.16615 14.4501 8.18543 14.3533 8.18543 14.2555C8.18543 14.1577 8.16615 14.0609 8.12871 13.9706C8.09127 13.8803 8.03639 13.7982 7.96721 13.7291L2.54049 8.30332L17.1131 8.30332C17.3104 8.30332 17.4997 8.22493 17.6392 8.0854C17.7788 7.94587 17.8571 7.75663 17.8571 7.5593C17.8571 7.36197 17.7788 7.17273 17.6392 7.03319C17.4997 6.89366 17.3104 6.81528 17.1131 6.81528L2.54049 6.81528L7.96721 1.38949C8.10682 1.24988 8.18525 1.06053 8.18525 0.863089C8.18525 0.665652 8.10682 0.476302 7.96721 0.336693C7.82761 0.197084 7.63825 0.118652 7.44082 0.118652C7.24338 0.118652 7.05403 0.197084 6.91442 0.336693L0.218212 7.0329C0.149035 7.102 0.0941571 7.18406 0.0567146 7.27438C0.0192722 7.36471 0 7.46152 0 7.5593C0 7.65707 0.0192722 7.75389 0.0567146 7.84422C0.0941571 7.93454 0.149035 8.0166 0.218212 8.0857L6.91442 14.7819C6.98352 14.8511 7.06558 14.906 7.1559 14.9434C7.24622 14.9808 7.34304 15.0001 7.44082 15.0001C7.53859 15.0001 7.63541 14.9808 7.72573 14.9434C7.81606 14.906 7.89812 14.8511 7.96721 14.7819Z" fill="white"/>
</svg>