<svg width="18" height="15" viewBox="0 0 18 15" fill="none" xmlns="http://www.w3.org/2000/svg">
<path d="M8.11007 0.336747C8.17924 0.405847 8.23412 0.487906 8.27156 0.578229C8.30901 0.668551 8.32828 0.765368 8.32828 0.863144C8.32828 0.960919 8.30901 1.05774 8.27156 1.14806C8.23412 1.23838 8.17924 1.32044 8.11007 1.38954L2.68335 6.81533L17.256 6.81533C17.4533 6.81533 17.6425 6.89372 17.7821 7.03325C17.9216 7.17278 18 7.36203 18 7.55935C18 7.75668 17.9216 7.94593 17.7821 8.08546C17.6425 8.22499 17.4533 8.30338 17.256 8.30338H2.68335L8.11007 13.7292C8.24968 13.8688 8.32811 14.0581 8.32811 14.2556C8.32811 14.453 8.24968 14.6424 8.11007 14.782C7.97046 14.9216 7.78111 15 7.58367 15C7.38623 15 7.19688 14.9216 7.05727 14.782L0.361065 8.08575C0.291888 8.01665 0.23701 7.93459 0.199567 7.84427C0.162125 7.75395 0.142853 7.65713 0.142853 7.55935C0.142853 7.46158 0.162125 7.36476 0.199567 7.27444C0.23701 7.18411 0.291888 7.10206 0.361065 7.03296L7.05727 0.336747C7.12637 0.26757 7.20843 0.212691 7.29875 0.175249C7.38908 0.137807 7.48589 0.118536 7.58367 0.118536C7.68145 0.118536 7.77826 0.137807 7.86859 0.175249C7.95891 0.212691 8.04097 0.26757 8.11007 0.336747Z" fill="#F0D2B7"/>
</svg>
