<svg width="19" height="16" viewBox="0 0 19 16" fill="none" xmlns="http://www.w3.org/2000/svg">
<path d="M8.59789 0.706071C8.66707 0.77517 8.72195 0.857229 8.75939 0.947553C8.79683 1.03788 8.8161 1.13469 8.8161 1.23247C8.8161 1.33024 8.79683 1.42706 8.75939 1.51739C8.72195 1.60771 8.66707 1.68976 8.59789 1.75886L3.17117 7.18465L17.7438 7.18465C17.9411 7.18465 18.1304 7.26304 18.2699 7.40257C18.4094 7.5421 18.4878 7.73135 18.4878 7.92868C18.4878 8.126 18.4094 8.31525 18.2699 8.45478C18.1304 8.59431 17.9411 8.6727 17.7438 8.6727H3.17117L8.59789 14.0985C8.7375 14.2381 8.81593 14.4274 8.81593 14.6249C8.81593 14.8223 8.7375 15.0117 8.59789 15.1513C8.45828 15.2909 8.26893 15.3693 8.07149 15.3693C7.87406 15.3693 7.68471 15.2909 7.5451 15.1513L0.848888 8.45507C0.779712 8.38597 0.724833 8.30392 0.687391 8.21359C0.649948 8.12327 0.630676 8.02645 0.630676 7.92868C0.630676 7.8309 0.649948 7.73408 0.687391 7.64376C0.724833 7.55344 0.779712 7.47138 0.848888 7.40228L7.5451 0.706071C7.6142 0.636894 7.69625 0.582015 7.78658 0.544573C7.8769 0.507131 7.97372 0.48786 8.07149 0.48786C8.16927 0.48786 8.26609 0.507131 8.35641 0.544573C8.44673 0.582015 8.52879 0.636894 8.59789 0.706071Z" fill="#DE9D62"/>
</svg>
