<svg width="19" height="16" viewBox="0 0 19 16" fill="none" xmlns="http://www.w3.org/2000/svg">
<path d="M10.4021 0.706071C10.3329 0.77517 10.278 0.857229 10.2406 0.947553C10.2031 1.03788 10.1839 1.13469 10.1839 1.23247C10.1839 1.33024 10.2031 1.42706 10.2406 1.51739C10.278 1.60771 10.3329 1.68976 10.4021 1.75886L15.8288 7.18465L1.25617 7.18465C1.05885 7.18465 0.8696 7.26304 0.730068 7.40257C0.590538 7.5421 0.51215 7.73135 0.51215 7.92868C0.51215 8.126 0.590538 8.31525 0.730068 8.45478C0.8696 8.59431 1.05885 8.6727 1.25617 8.6727H15.8288L10.4021 14.0985C10.2625 14.2381 10.184 14.4274 10.184 14.6249C10.184 14.8223 10.2625 15.0117 10.4021 15.1513C10.5417 15.2909 10.731 15.3693 10.9285 15.3693C11.1259 15.3693 11.3153 15.2909 11.4549 15.1513L18.1511 8.45507C18.2203 8.38597 18.2751 8.30392 18.3126 8.21359C18.35 8.12327 18.3693 8.02645 18.3693 7.92868C18.3693 7.8309 18.35 7.73408 18.3126 7.64376C18.2751 7.55344 18.2203 7.47138 18.1511 7.40228L11.4549 0.706071C11.3858 0.636894 11.3037 0.582015 11.2134 0.544573C11.1231 0.507131 11.0263 0.48786 10.9285 0.48786C10.8307 0.48786 10.7339 0.507131 10.6436 0.544573C10.5532 0.582015 10.4712 0.636894 10.4021 0.706071Z" fill="#DE9D62"/>
</svg>
