<svg width="18" height="15" viewBox="0 0 18 15" fill="none" xmlns="http://www.w3.org/2000/svg">
    <path d="M9.88993 0.336747C9.82076 0.405847 9.76588 0.487906 9.72844 0.578229C9.69099 0.668551 9.67172 0.765368 9.67172 0.863144C9.67172 0.960919 9.69099 1.05774 9.72844 1.14806C9.76588 1.23838 9.82076 1.32044 9.88993 1.38954L15.3167 6.81533L0.744028 6.81533C0.5467 6.81533 0.357454 6.89372 0.217922 7.03325C0.078392 7.17278 3.8147e-06 7.36203 3.8147e-06 7.55935C3.8147e-06 7.75668 0.078392 7.94593 0.217922 8.08546C0.357454 8.22499 0.5467 8.30338 0.744028 8.30338H15.3167L9.88993 13.7292C9.75032 13.8688 9.67189 14.0581 9.67189 14.2556C9.67189 14.453 9.75032 14.6424 9.88993 14.782C10.0295 14.9216 10.2189 15 10.4163 15C10.6138 15 10.8031 14.9216 10.9427 14.782L17.6389 8.08575C17.7081 8.01665 17.763 7.93459 17.8004 7.84427C17.8379 7.75395 17.8571 7.65713 17.8571 7.55935C17.8571 7.46158 17.8379 7.36476 17.8004 7.27444C17.763 7.18411 17.7081 7.10206 17.6389 7.03296L10.9427 0.336747C10.8736 0.26757 10.7916 0.212691 10.7012 0.175249C10.6109 0.137807 10.5141 0.118536 10.4163 0.118536C10.3186 0.118536 10.2217 0.137807 10.1314 0.175249C10.0411 0.212691 9.95903 0.26757 9.88993 0.336747Z" fill="white"/>
</svg>
