<svg width="18" height="15" viewBox="0 0 18 15" fill="none" xmlns="http://www.w3.org/2000/svg">
<path d="M10.0328 14.7824C9.96361 14.7133 9.90873 14.6312 9.87129 14.5409C9.83385 14.4506 9.81457 14.3538 9.81457 14.256C9.81457 14.1582 9.83385 14.0614 9.87129 13.9711C9.90873 13.8808 9.96361 13.7987 10.0328 13.7296L15.4595 8.30381H0.88688C0.689553 8.30381 0.500307 8.22542 0.360776 8.08589C0.221244 7.94636 0.142857 7.75711 0.142857 7.55979C0.142857 7.36246 0.221244 7.17321 0.360776 7.03368C0.500307 6.89415 0.689553 6.81576 0.88688 6.81576L15.4595 6.81576L10.0328 1.38997C9.89318 1.25036 9.81475 1.06101 9.81475 0.863578C9.81475 0.666141 9.89318 0.47679 10.0328 0.337181C10.1724 0.197572 10.3617 0.119141 10.5592 0.119141C10.7566 0.119141 10.946 0.197572 11.0856 0.337181L17.7818 7.03339C17.851 7.10249 17.9058 7.18455 17.9433 7.27487C17.9807 7.36519 18 7.46201 18 7.55979C18 7.65756 17.9807 7.75438 17.9433 7.8447C17.9058 7.93503 17.851 8.01708 17.7818 8.08618L11.0856 14.7824C11.0165 14.8516 10.9344 14.9064 10.8441 14.9439C10.7538 14.9813 10.657 15.0006 10.5592 15.0006C10.4614 15.0006 10.3646 14.9813 10.2743 14.9439C10.1839 14.9064 10.1019 14.8516 10.0328 14.7824Z" fill="#F0D2B7"/>
</svg>
