<svg width="26" height="20" viewBox="0 0 26 20" fill="none" xmlns="http://www.w3.org/2000/svg">
<path d="M24.8175 8.95048L16.122 0.255026C16.0005 0.133346 15.8456 0.0504418 15.6769 0.016799C15.5082 -0.0168439 15.3334 0.000285681 15.1745 0.0660211C15.0155 0.131757 14.8797 0.243145 14.784 0.3861C14.6884 0.529056 14.6373 0.697156 14.6373 0.869143V5.25491C11.8178 5.49621 8.70371 6.87661 6.14181 9.04939C3.0571 11.6667 1.13649 15.0395 0.733239 18.5459C0.701726 18.8185 0.757001 19.0941 0.891196 19.3335C1.02539 19.5729 1.23167 19.7638 1.48067 19.8792C1.72968 19.9945 2.00872 20.0284 2.2781 19.976C2.54747 19.9236 2.79344 19.7875 2.98101 19.5872C4.17664 18.3144 8.43089 14.2895 14.6373 13.9351V18.26C14.6373 18.432 14.6884 18.6001 14.784 18.7431C14.8797 18.886 15.0155 18.9974 15.1745 19.0632C15.3334 19.1289 15.5082 19.146 15.6769 19.1124C15.8456 19.0787 16.0005 18.9958 16.122 18.8742L24.8175 10.1787C24.9801 10.0157 25.0714 9.79485 25.0714 9.56459C25.0714 9.33434 24.9801 9.11349 24.8175 8.95048ZM16.3764 16.1612V13.0428C16.3764 12.8122 16.2847 12.591 16.1217 12.4279C15.9586 12.2648 15.7374 12.1732 15.5068 12.1732C12.4547 12.1732 9.48195 12.9699 6.67114 14.5427C5.23959 15.3473 3.90578 16.3146 2.69624 17.4253C3.32666 14.834 4.91575 12.37 7.26678 10.3754C9.79064 8.23528 12.871 6.95596 15.5068 6.95596C15.7374 6.95596 15.9586 6.86435 16.1217 6.70127C16.2847 6.5382 16.3764 6.31703 16.3764 6.08641V2.96909L22.9729 9.56459L16.3764 16.1612Z" fill="#101010"/>
</svg>
